<svg xmlns="http://www.w3.org/2000/svg" xmlns:xlink="http://www.w3.org/1999/xlink" contentStyleType="text/css" height="1221px" preserveAspectRatio="none" style="width:951px;height:1221px;background:#FFFFFF;" version="1.1" viewBox="0 0 951 1221" width="951px" zoomAndPan="magnify"><defs/><g><rect fill="#ADD8E6" height="1209.9141" style="stroke:#000000;stroke-width:1.0;" width="332.917" x="360.106" y="6"/><text fill="#000000" font-family="Verdana" font-size="13" font-weight="bold" lengthAdjust="spacing" textLength="116.0732" x="468.5278" y="18.0669">Ammo Collector</text><rect fill="#FFFFFF" height="101.5313" style="stroke:#000000;stroke-width:1.0;" width="10" x="597.8066" y="346.4922"/><rect fill="#FFFFFF" height="92.3984" style="stroke:#000000;stroke-width:1.0;" width="10" x="597.8066" y="543.4219"/><rect fill="#FFFFFF" height="177.6016" style="stroke:#000000;stroke-width:1.0;" width="919.748" x="15" y="941.0156"/><rect fill="#FFFFFF" height="102.2031" style="stroke:none;stroke-width:1.0;" width="919.748" x="15" y="1016.4141"/><line style="stroke:#000000;stroke-width:1.0;" x1="43" x2="43" y1="82.2969" y2="1135.6172"/><line style="stroke:#000000;stroke-width:1.0;" x1="162.9102" x2="162.9102" y1="82.2969" y2="1135.6172"/><line style="stroke:#000000;stroke-width:1.0;" x1="313.731" x2="313.731" y1="82.2969" y2="1135.6172"/><line style="stroke:#000000;stroke-width:1.0;" x1="435.106" x2="435.106" y1="82.2969" y2="1135.6172"/><line style="stroke:#000000;stroke-width:1.0;" x1="602.5903" x2="602.5903" y1="82.2969" y2="1135.6172"/><line style="stroke:#000000;stroke-width:1.0;" x1="834.9951" x2="834.9951" y1="82.2969" y2="1135.6172"/><line style="stroke:#000000;stroke-width:1.0;" x1="906.748" x2="906.748" y1="82.2969" y2="1135.6172"/><text fill="#000000" font-family="Verdana" font-size="14" lengthAdjust="spacing" textLength="31.9102" x="25" y="78.9951">User</text><ellipse cx="43.9551" cy="14" fill="#FFFFFF" rx="8" ry="8" style="stroke:#000000;stroke-width:1.0;"/><path d="M43.9551,22 L43.9551,49 M30.9551,30 L56.9551,30 M43.9551,49 L30.9551,64 M43.9551,49 L56.9551,64 " fill="none" style="stroke:#000000;stroke-width:1.0;"/><text fill="#000000" font-family="Verdana" font-size="14" lengthAdjust="spacing" textLength="31.9102" x="25" y="1147.6123">User</text><ellipse cx="43.9551" cy="1159.9141" fill="#FFFFFF" rx="8" ry="8" style="stroke:#000000;stroke-width:1.0;"/><path d="M43.9551,1167.9141 L43.9551,1194.9141 M30.9551,1175.9141 L56.9551,1175.9141 M43.9551,1194.9141 L30.9551,1209.9141 M43.9551,1194.9141 L56.9551,1209.9141 " fill="none" style="stroke:#000000;stroke-width:1.0;"/><rect fill="#FFFFFF" height="46.5938" rx="2.5" ry="2.5" style="stroke:#000000;stroke-width:1.0;" width="141.9482" x="92.9102" y="34.7031"/><text fill="#000000" font-family="Verdana" font-size="14" lengthAdjust="spacing" textLength="96.7217" x="115.5234" y="54.6982">Client Service</text><text fill="#000000" font-family="Verdana" font-size="14" lengthAdjust="spacing" textLength="127.9482" x="99.9102" y="70.9951">(with ammoclient)</text><rect fill="#FFFFFF" height="46.5938" rx="2.5" ry="2.5" style="stroke:#000000;stroke-width:1.0;" width="141.9482" x="92.9102" y="1134.6172"/><text fill="#000000" font-family="Verdana" font-size="14" lengthAdjust="spacing" textLength="96.7217" x="115.5234" y="1154.6123">Client Service</text><text fill="#000000" font-family="Verdana" font-size="14" lengthAdjust="spacing" textLength="127.9482" x="99.9102" y="1170.9092">(with ammoclient)</text><path d="M289.731,56 L339.106,56 C344.106,56 344.106,69.1484 344.106,69.1484 C344.106,69.1484 344.106,82.2969 339.106,82.2969 L289.731,82.2969 C284.731,82.2969 284.731,69.1484 284.731,69.1484 C284.731,69.1484 284.731,56 289.731,56 " fill="#FFFFFF" style="stroke:#000000;stroke-width:1.0;"/><path d="M339.106,56 C334.106,56 334.106,69.1484 334.106,69.1484 C334.106,82.2969 339.106,82.2969 339.106,82.2969 " fill="none" style="stroke:#000000;stroke-width:1.0;"/><text fill="#000000" font-family="Verdana" font-size="14" lengthAdjust="spacing" textLength="39.375" x="289.731" y="73.9951">Kafka</text><path d="M289.731,1134.6172 L339.106,1134.6172 C344.106,1134.6172 344.106,1147.7656 344.106,1147.7656 C344.106,1147.7656 344.106,1160.9141 339.106,1160.9141 L289.731,1160.9141 C284.731,1160.9141 284.731,1147.7656 284.731,1147.7656 C284.731,1147.7656 284.731,1134.6172 289.731,1134.6172 " fill="#FFFFFF" style="stroke:#000000;stroke-width:1.0;"/><path d="M339.106,1134.6172 C334.106,1134.6172 334.106,1147.7656 334.106,1147.7656 C334.106,1160.9141 339.106,1160.9141 339.106,1160.9141 " fill="none" style="stroke:#000000;stroke-width:1.0;"/><text fill="#000000" font-family="Verdana" font-size="14" lengthAdjust="spacing" textLength="39.375" x="289.731" y="1152.6123">Kafka</text><rect fill="#FFFFFF" height="46.5938" rx="2.5" ry="2.5" style="stroke:#000000;stroke-width:1.0;" width="102.4844" x="384.106" y="34.7031"/><text fill="#000000" font-family="Verdana" font-size="14" lengthAdjust="spacing" textLength="22.1484" x="424.2739" y="54.6982">API</text><text fill="#000000" font-family="Verdana" font-size="14" lengthAdjust="spacing" textLength="88.4844" x="391.106" y="70.9951">(REST/gRPC)</text><rect fill="#FFFFFF" height="46.5938" rx="2.5" ry="2.5" style="stroke:#000000;stroke-width:1.0;" width="102.4844" x="384.106" y="1134.6172"/><text fill="#000000" font-family="Verdana" font-size="14" lengthAdjust="spacing" textLength="22.1484" x="424.2739" y="1154.6123">API</text><text fill="#000000" font-family="Verdana" font-size="14" lengthAdjust="spacing" textLength="88.4844" x="391.106" y="1170.9092">(REST/gRPC)</text><rect fill="#FFFFFF" height="30.2969" rx="2.5" ry="2.5" style="stroke:#000000;stroke-width:1.0;" width="132.4326" x="536.5903" y="51"/><text fill="#000000" font-family="Verdana" font-size="14" lengthAdjust="spacing" textLength="118.4326" x="543.5903" y="70.9951">Collector Service</text><rect fill="#FFFFFF" height="30.2969" rx="2.5" ry="2.5" style="stroke:#000000;stroke-width:1.0;" width="132.4326" x="536.5903" y="1134.6172"/><text fill="#000000" font-family="Verdana" font-size="14" lengthAdjust="spacing" textLength="118.4326" x="543.5903" y="1154.6123">Collector Service</text><text fill="#000000" font-family="Verdana" font-size="14" lengthAdjust="spacing" textLength="80.7529" x="791.9951" y="78.9951">PostgreSQL</text><path d="M817.3716,30 C817.3716,20 835.3716,20 835.3716,20 C835.3716,20 853.3716,20 853.3716,30 L853.3716,56 C853.3716,66 835.3716,66 835.3716,66 C835.3716,66 817.3716,66 817.3716,56 L817.3716,30 " fill="#FFFFFF" style="stroke:#000000;stroke-width:1.5;"/><path d="M817.3716,30 C817.3716,40 835.3716,40 835.3716,40 C835.3716,40 853.3716,40 853.3716,30 " fill="none" style="stroke:#000000;stroke-width:1.5;"/><text fill="#000000" font-family="Verdana" font-size="14" lengthAdjust="spacing" textLength="80.7529" x="791.9951" y="1147.6123">PostgreSQL</text><path d="M817.3716,1160.9141 C817.3716,1150.9141 835.3716,1150.9141 835.3716,1150.9141 C835.3716,1150.9141 853.3716,1150.9141 853.3716,1160.9141 L853.3716,1186.9141 C853.3716,1196.9141 835.3716,1196.9141 835.3716,1196.9141 C835.3716,1196.9141 817.3716,1196.9141 817.3716,1186.9141 L817.3716,1160.9141 " fill="#FFFFFF" style="stroke:#000000;stroke-width:1.5;"/><path d="M817.3716,1160.9141 C817.3716,1170.9141 835.3716,1170.9141 835.3716,1170.9141 C835.3716,1170.9141 853.3716,1170.9141 853.3716,1160.9141 " fill="none" style="stroke:#000000;stroke-width:1.5;"/><text fill="#000000" font-family="Verdana" font-size="14" lengthAdjust="spacing" textLength="17.7939" x="894.8511" y="78.9951">S3</text><path d="M888.748,30 C888.748,20 906.748,20 906.748,20 C906.748,20 924.748,20 924.748,30 L924.748,56 C924.748,66 906.748,66 906.748,66 C906.748,66 888.748,66 888.748,56 L888.748,30 " fill="#FFFFFF" style="stroke:#000000;stroke-width:1.5;"/><path d="M888.748,30 C888.748,40 906.748,40 906.748,40 C906.748,40 924.748,40 924.748,30 " fill="none" style="stroke:#000000;stroke-width:1.5;"/><text fill="#000000" font-family="Verdana" font-size="14" lengthAdjust="spacing" textLength="17.7939" x="894.8511" y="1147.6123">S3</text><path d="M888.748,1160.9141 C888.748,1150.9141 906.748,1150.9141 906.748,1150.9141 C906.748,1150.9141 924.748,1150.9141 924.748,1160.9141 L924.748,1186.9141 C924.748,1196.9141 906.748,1196.9141 906.748,1196.9141 C906.748,1196.9141 888.748,1196.9141 888.748,1186.9141 L888.748,1160.9141 " fill="#FFFFFF" style="stroke:#000000;stroke-width:1.5;"/><path d="M888.748,1160.9141 C888.748,1170.9141 906.748,1170.9141 906.748,1170.9141 C906.748,1170.9141 924.748,1170.9141 924.748,1160.9141 " fill="none" style="stroke:#000000;stroke-width:1.5;"/><rect fill="#FFFFFF" height="101.5313" style="stroke:#000000;stroke-width:1.0;" width="10" x="597.8066" y="346.4922"/><rect fill="#FFFFFF" height="92.3984" style="stroke:#000000;stroke-width:1.0;" width="10" x="597.8066" y="543.4219"/><rect fill="#FFFFFF" height="3" style="stroke:#FFFFFF;stroke-width:1.0;" width="939.748" x="5" y="112.8633"/><line style="stroke:#000000;stroke-width:0.5;" x1="5" x2="944.748" y1="112.8633" y2="112.8633"/><line style="stroke:#000000;stroke-width:0.5;" x1="5" x2="944.748" y1="115.8633" y2="115.8633"/><rect fill="#FFFFFF" height="23.1328" style="stroke:#000000;stroke-width:1.0;" width="177.3188" x="386.2146" y="102.2969"/><text fill="#000000" font-family="Verdana" font-size="13" font-weight="bold" lengthAdjust="spacing" textLength="158.793" x="392.2146" y="118.3638">Setup Collection Task</text><polygon fill="#000000" points="423.3481,167.6953,433.3481,171.6953,423.3481,175.6953,427.3481,171.6953" style="stroke:#000000;stroke-width:1.0;"/><line style="stroke:#000000;stroke-width:1.0;" x1="43.9551" x2="429.3481" y1="171.6953" y2="171.6953"/><text fill="#000000" font-family="Verdana" font-size="13" lengthAdjust="spacing" textLength="141.4829" x="50.9551" y="151.4966">Create collection task</text><text fill="#000000" font-family="Verdana" font-size="13" lengthAdjust="spacing" textLength="82.1641" x="50.9551" y="166.6294">(REST/gRPC)</text><polygon fill="#000000" points="590.8066,196.8281,600.8066,200.8281,590.8066,204.8281,594.8066,200.8281" style="stroke:#000000;stroke-width:1.0;"/><line style="stroke:#000000;stroke-width:1.0;" x1="435.3481" x2="596.8066" y1="200.8281" y2="200.8281"/><text fill="#000000" font-family="Verdana" font-size="13" lengthAdjust="spacing" textLength="84.4683" x="442.3481" y="195.7622">Forward task</text><polygon fill="#000000" points="823.3716,225.9609,833.3716,229.9609,823.3716,233.9609,827.3716,229.9609" style="stroke:#000000;stroke-width:1.0;"/><line style="stroke:#000000;stroke-width:1.0;" x1="602.8066" x2="829.3716" y1="229.9609" y2="229.9609"/><text fill="#000000" font-family="Verdana" font-size="13" lengthAdjust="spacing" textLength="63.4067" x="609.8066" y="224.895">Save task</text><rect fill="#FFFFFF" height="3" style="stroke:#FFFFFF;stroke-width:1.0;" width="939.748" x="5" y="258.5273"/><line style="stroke:#000000;stroke-width:0.5;" x1="5" x2="944.748" y1="258.5273" y2="258.5273"/><line style="stroke:#000000;stroke-width:0.5;" x1="5" x2="944.748" y1="261.5273" y2="261.5273"/><rect fill="#FFFFFF" height="23.1328" style="stroke:#000000;stroke-width:1.0;" width="155.9717" x="396.8882" y="247.9609"/><text fill="#000000" font-family="Verdana" font-size="13" font-weight="bold" lengthAdjust="spacing" textLength="137.4458" x="402.8882" y="264.0278">Request Collection</text><polygon fill="#000000" points="302.4185,313.3594,312.4185,317.3594,302.4185,321.3594,306.4185,317.3594" style="stroke:#000000;stroke-width:1.0;"/><line style="stroke:#000000;stroke-width:1.0;" x1="163.8843" x2="308.4185" y1="317.3594" y2="317.3594"/><text fill="#000000" font-family="Verdana" font-size="13" lengthAdjust="spacing" textLength="126.5342" x="170.8843" y="297.1606">SendGRPCRequest/</text><text fill="#000000" font-family="Verdana" font-size="13" lengthAdjust="spacing" textLength="119.6279" x="170.8843" y="312.2935">SendHTTPRequest</text><polygon fill="#000000" points="325.4185,342.4922,315.4185,346.4922,325.4185,350.4922,321.4185,346.4922" style="stroke:#000000;stroke-width:1.0;"/><line style="stroke:#000000;stroke-width:1.0;" x1="319.4185" x2="596.8066" y1="346.4922" y2="346.4922"/><text fill="#000000" font-family="Verdana" font-size="13" lengthAdjust="spacing" textLength="121.5513" x="331.4185" y="341.4263">Consume requests</text><line style="stroke:#000000;stroke-width:1.0;" x1="607.8066" x2="649.8066" y1="390.7578" y2="390.7578"/><line style="stroke:#000000;stroke-width:1.0;" x1="649.8066" x2="649.8066" y1="390.7578" y2="403.7578"/><line style="stroke:#000000;stroke-width:1.0;" x1="608.8066" x2="649.8066" y1="403.7578" y2="403.7578"/><polygon fill="#000000" points="618.8066,399.7578,608.8066,403.7578,618.8066,407.7578,614.8066,403.7578" style="stroke:#000000;stroke-width:1.0;"/><text fill="#000000" font-family="Verdana" font-size="13" lengthAdjust="spacing" textLength="145.8628" x="614.8066" y="370.5591">Check request against</text><text fill="#000000" font-family="Verdana" font-size="13" lengthAdjust="spacing" textLength="112.6265" x="614.8066" y="385.6919">collection criteria</text><polygon fill="#000000" points="823.3716,444.0234,833.3716,448.0234,823.3716,452.0234,827.3716,448.0234" style="stroke:#000000;stroke-width:1.0;"/><line style="stroke:#000000;stroke-width:1.0;" x1="602.8066" x2="829.3716" y1="448.0234" y2="448.0234"/><text fill="#000000" font-family="Verdana" font-size="13" lengthAdjust="spacing" textLength="157.8662" x="609.8066" y="427.8247">Save matching requests</text><text fill="#000000" font-family="Verdana" font-size="13" lengthAdjust="spacing" textLength="87.9214" x="609.8066" y="442.9575">linked to task</text><rect fill="#FFFFFF" height="3" style="stroke:#FFFFFF;stroke-width:1.0;" width="939.748" x="5" y="476.5898"/><line style="stroke:#000000;stroke-width:0.5;" x1="5" x2="944.748" y1="476.5898" y2="476.5898"/><line style="stroke:#000000;stroke-width:0.5;" x1="5" x2="944.748" y1="479.5898" y2="479.5898"/><rect fill="#FFFFFF" height="23.1328" style="stroke:#000000;stroke-width:1.0;" width="140.5278" x="404.6101" y="466.0234"/><text fill="#000000" font-family="Verdana" font-size="13" font-weight="bold" lengthAdjust="spacing" textLength="122.002" x="410.6101" y="482.0903">Task Completion</text><line style="stroke:#000000;stroke-width:1.0;" x1="602.8066" x2="649.8066" y1="530.4219" y2="530.4219"/><line style="stroke:#000000;stroke-width:1.0;" x1="649.8066" x2="649.8066" y1="530.4219" y2="543.4219"/><line style="stroke:#000000;stroke-width:1.0;" x1="608.8066" x2="649.8066" y1="543.4219" y2="543.4219"/><polygon fill="#000000" points="618.8066,539.4219,608.8066,543.4219,618.8066,547.4219,614.8066,543.4219" style="stroke:#000000;stroke-width:1.0;"/><text fill="#000000" font-family="Verdana" font-size="13" lengthAdjust="spacing" textLength="148.1479" x="614.8066" y="510.2231">Check task completion</text><text fill="#000000" font-family="Verdana" font-size="13" lengthAdjust="spacing" textLength="46.1221" x="614.8066" y="525.356">criteria</text><polygon fill="#000000" points="823.3716,573.5547,833.3716,577.5547,823.3716,581.5547,827.3716,577.5547" style="stroke:#000000;stroke-width:1.0;"/><line style="stroke:#000000;stroke-width:1.0;" x1="607.8066" x2="829.3716" y1="577.5547" y2="577.5547"/><text fill="#000000" font-family="Verdana" font-size="13" lengthAdjust="spacing" textLength="159.5166" x="614.8066" y="572.4888">Fetch collected requests</text><polygon fill="#000000" points="894.748,602.6875,904.748,606.6875,894.748,610.6875,898.748,606.6875" style="stroke:#000000;stroke-width:1.0;"/><line style="stroke:#000000;stroke-width:1.0;" x1="607.8066" x2="900.748" y1="606.6875" y2="606.6875"/><text fill="#000000" font-family="Verdana" font-size="13" lengthAdjust="spacing" textLength="125.7344" x="614.8066" y="601.6216">Save as zip archive</text><polygon fill="#000000" points="823.3716,631.8203,833.3716,635.8203,823.3716,639.8203,827.3716,635.8203" style="stroke:#000000;stroke-width:1.0;"/><line style="stroke:#000000;stroke-width:1.0;" x1="602.8066" x2="829.3716" y1="635.8203" y2="635.8203"/><text fill="#000000" font-family="Verdana" font-size="13" lengthAdjust="spacing" textLength="122.6558" x="609.8066" y="630.7544">Update task status</text><rect fill="#FFFFFF" height="3" style="stroke:#FFFFFF;stroke-width:1.0;" width="939.748" x="5" y="664.3867"/><line style="stroke:#000000;stroke-width:0.5;" x1="5" x2="944.748" y1="664.3867" y2="664.3867"/><line style="stroke:#000000;stroke-width:0.5;" x1="5" x2="944.748" y1="667.3867" y2="667.3867"/><rect fill="#FFFFFF" height="23.1328" style="stroke:#000000;stroke-width:1.0;" width="191.4995" x="379.1243" y="653.8203"/><text fill="#000000" font-family="Verdana" font-size="13" font-weight="bold" lengthAdjust="spacing" textLength="172.9736" x="385.1243" y="669.8872">Background Operations</text><polygon fill="#000000" points="823.3716,704.0859,833.3716,708.0859,823.3716,712.0859,827.3716,708.0859" style="stroke:#000000;stroke-width:1.0;"/><line style="stroke:#000000;stroke-width:1.0;" x1="602.8066" x2="829.3716" y1="708.0859" y2="708.0859"/><text fill="#000000" font-family="Verdana" font-size="13" lengthAdjust="spacing" textLength="208.5649" x="609.8066" y="703.02">Periodic cleanup of old requests</text><polygon fill="#000000" points="894.748,733.2188,904.748,737.2188,894.748,741.2188,898.748,737.2188" style="stroke:#000000;stroke-width:1.0;"/><line style="stroke:#000000;stroke-width:1.0;" x1="602.8066" x2="900.748" y1="737.2188" y2="737.2188"/><text fill="#000000" font-family="Verdana" font-size="13" lengthAdjust="spacing" textLength="206.8638" x="609.8066" y="732.1528">Periodic cleanup of old archives</text><rect fill="#FFFFFF" height="3" style="stroke:#FFFFFF;stroke-width:1.0;" width="939.748" x="5" y="765.7852"/><line style="stroke:#000000;stroke-width:0.5;" x1="5" x2="944.748" y1="765.7852" y2="765.7852"/><line style="stroke:#000000;stroke-width:0.5;" x1="5" x2="944.748" y1="768.7852" y2="768.7852"/><rect fill="#FFFFFF" height="23.1328" style="stroke:#000000;stroke-width:1.0;" width="179.2485" x="385.2498" y="755.2188"/><text fill="#000000" font-family="Verdana" font-size="13" font-weight="bold" lengthAdjust="spacing" textLength="160.7227" x="391.2498" y="771.2856">Task Status &amp; Results</text><polygon fill="#000000" points="423.3481,805.4844,433.3481,809.4844,423.3481,813.4844,427.3481,809.4844" style="stroke:#000000;stroke-width:1.0;"/><line style="stroke:#000000;stroke-width:1.0;" x1="43.9551" x2="429.3481" y1="809.4844" y2="809.4844"/><text fill="#000000" font-family="Verdana" font-size="13" lengthAdjust="spacing" textLength="150.5728" x="50.9551" y="804.4185">Check collection status</text><polygon fill="#000000" points="823.3716,834.6172,833.3716,838.6172,823.3716,842.6172,827.3716,838.6172" style="stroke:#000000;stroke-width:1.0;"/><line style="stroke:#000000;stroke-width:1.0;" x1="435.3481" x2="829.3716" y1="838.6172" y2="838.6172"/><text fill="#000000" font-family="Verdana" font-size="13" lengthAdjust="spacing" textLength="115.083" x="442.3481" y="833.5513">Query task status</text><polygon fill="#000000" points="446.3481,863.75,436.3481,867.75,446.3481,871.75,442.3481,867.75" style="stroke:#000000;stroke-width:1.0;"/><line style="stroke:#000000;stroke-width:1.0;stroke-dasharray:2.0,2.0;" x1="440.3481" x2="834.3716" y1="867.75" y2="867.75"/><text fill="#000000" font-family="Verdana" font-size="13" lengthAdjust="spacing" textLength="88.0293" x="452.3481" y="862.6841">Return status</text><polygon fill="#000000" points="54.9551,892.8828,44.9551,896.8828,54.9551,900.8828,50.9551,896.8828" style="stroke:#000000;stroke-width:1.0;"/><line style="stroke:#000000;stroke-width:1.0;stroke-dasharray:2.0,2.0;" x1="48.9551" x2="434.3481" y1="896.8828" y2="896.8828"/><text fill="#000000" font-family="Verdana" font-size="13" lengthAdjust="spacing" textLength="88.0293" x="60.9551" y="891.8169">Return status</text><polygon fill="#000000" points="423.3481,922.0156,433.3481,926.0156,423.3481,930.0156,427.3481,926.0156" style="stroke:#000000;stroke-width:1.0;"/><line style="stroke:#000000;stroke-width:1.0;" x1="43.9551" x2="429.3481" y1="926.0156" y2="926.0156"/><text fill="#000000" font-family="Verdana" font-size="13" lengthAdjust="spacing" textLength="172.0278" x="50.9551" y="920.9497">Request collection archive</text><path d="M15,941.0156 L79.4429,941.0156 L79.4429,948.1484 L69.4429,958.1484 L15,958.1484 L15,941.0156 " fill="#FFFFFF" style="stroke:#000000;stroke-width:1.0;"/><rect fill="none" height="177.6016" style="stroke:#000000;stroke-width:1.0;" width="919.748" x="15" y="941.0156"/><text fill="#000000" font-family="Verdana" font-size="13" font-weight="bold" lengthAdjust="spacing" textLength="19.4429" x="30" y="954.0825">alt</text><text fill="#000000" font-family="Verdana" font-size="11" font-weight="bold" lengthAdjust="spacing" textLength="112.9648" x="94.4429" y="953.2261">[Direct S3 Access]</text><polygon fill="#000000" points="54.9551,975.2813,44.9551,979.2813,54.9551,983.2813,50.9551,979.2813" style="stroke:#000000;stroke-width:1.0;"/><line style="stroke:#000000;stroke-width:1.0;stroke-dasharray:2.0,2.0;" x1="48.9551" x2="434.3481" y1="979.2813" y2="979.2813"/><text fill="#000000" font-family="Verdana" font-size="13" lengthAdjust="spacing" textLength="94.5293" x="60.9551" y="974.2153">Return S3 URL</text><polygon fill="#000000" points="894.748,1004.4141,904.748,1008.4141,894.748,1012.4141,898.748,1008.4141" style="stroke:#000000;stroke-width:1.0;"/><line style="stroke:#000000;stroke-width:1.0;" x1="43.9551" x2="900.748" y1="1008.4141" y2="1008.4141"/><text fill="#000000" font-family="Verdana" font-size="13" lengthAdjust="spacing" textLength="116.7524" x="50.9551" y="1003.3481">Download archive</text><line style="stroke:#000000;stroke-width:1.0;stroke-dasharray:2.0,2.0;" x1="15" x2="934.748" y1="1017.4141" y2="1017.4141"/><text fill="#000000" font-family="Verdana" font-size="11" font-weight="bold" lengthAdjust="spacing" textLength="54.2588" x="20" y="1027.6245">[Via API]</text><polygon fill="#000000" points="894.748,1048.3516,904.748,1052.3516,894.748,1056.3516,898.748,1052.3516" style="stroke:#000000;stroke-width:1.0;"/><line style="stroke:#000000;stroke-width:1.0;" x1="435.3481" x2="900.748" y1="1052.3516" y2="1052.3516"/><text fill="#000000" font-family="Verdana" font-size="13" lengthAdjust="spacing" textLength="88.0928" x="442.3481" y="1047.2856">Fetch archive</text><polygon fill="#000000" points="446.3481,1077.4844,436.3481,1081.4844,446.3481,1085.4844,442.3481,1081.4844" style="stroke:#000000;stroke-width:1.0;"/><line style="stroke:#000000;stroke-width:1.0;stroke-dasharray:2.0,2.0;" x1="440.3481" x2="905.748" y1="1081.4844" y2="1081.4844"/><text fill="#000000" font-family="Verdana" font-size="13" lengthAdjust="spacing" textLength="96.0845" x="452.3481" y="1076.4185">Return archive</text><polygon fill="#000000" points="54.9551,1106.6172,44.9551,1110.6172,54.9551,1114.6172,50.9551,1110.6172" style="stroke:#000000;stroke-width:1.0;"/><line style="stroke:#000000;stroke-width:1.0;stroke-dasharray:2.0,2.0;" x1="48.9551" x2="434.3481" y1="1110.6172" y2="1110.6172"/><text fill="#000000" font-family="Verdana" font-size="13" lengthAdjust="spacing" textLength="96.0845" x="60.9551" y="1105.5513">Return archive</text><!--SRC=[XLJ1Rjim3BthAxWC6BP3qMwv5KY1nbstOGNcnkbEkR0scmXs94-IasvVFqgs77jfkbnYau_aUy-KthWDRGdg2gKIjfIgHeDRUCIyN1lTg2BHbJQmtqX7WtoAnibSrgXSYaKXrHe-NGpoS_qSunylXC3SSPF9WoKp0RJGy8Ee3prWabII-3yZivCvhTJxlNGRmErMvo7p8TIrp-9NGmt1v3i-bHZYfNyIZ_eP9jTS0aow8Zzp0c_lv7hZvbL30lWt6dgTVkD9Yy_PydozI9Ds1jRo6DatZ0nREZ4gI1N0uqM13X_HChbKMxSsbDtV1MZTlje18fk6Z9qACPjnNzVKaRZK2fPeIvZDXFSApguyhqj83A6ZEDZ37CD68WG3FRudTmctskpH504h-hW7HLgNaE6EMe1dio3ssBeX7wRIsk_hWk5SnBg_yD0EVhvIFl9rkKoxo7XQLvLePHjUEjDYh5yFkHleOaD7TGCfoORoCbO2hdbjhLkfWI6vuLKr4byLkaMNR_nsHWuhLKbL4dkaMnSAUe6LjoPybqHlwufwNrubwzjnD1OmsSZmVxeFf6-9-KOOi-oj6-7jj9F7Q_L7re26HUxeLDE7kl330p_hq3NsjEfvVo70ZveCUYNsIFkXTye2TI5pFhA4YZTRFu6kNYD-gg8JOG_cPu4hlECjjKtbxF4f2RuFTg9JrvsC0ylxXiplaG4n1sUnsO8FfXctu9IVzszkJ28UeG6D-3smSd0Z3KSXcy9rdfEruSvviJj37XPt8Hy7UBzkz5vL6dk315Lyg_oK27oj7Rgru7P_8j8dxVH8uZ3z8fD-aYh-0W00]--></g></svg>