<svg xmlns="http://www.w3.org/2000/svg" xmlns:xlink="http://www.w3.org/1999/xlink" contentStyleType="text/css" height="871px" preserveAspectRatio="none" style="width:995px;height:871px;background:#FFFFFF;" version="1.1" viewBox="0 0 995 871" width="995px" zoomAndPan="magnify"><defs/><g><text fill="#000000" font-family="Verdana" font-size="22" font-weight="bold" lengthAdjust="spacing" textLength="321.5029" x="340.2629" y="35.4209">Ammo Collector Workflow</text><rect fill="#FFFFFF" height="177.7969" style="stroke:#000000;stroke-width:1.0;" width="471.4023" x="480.6265" y="262.4375"/><rect fill="#FFFFFF" height="75.3984" style="stroke:#000000;stroke-width:1.0;" width="334.2842" x="607.7446" y="357.8359"/><rect fill="#FFFFFF" height="75.3984" style="stroke:#000000;stroke-width:1.0;" width="380.2842" x="607.7446" y="496.3672"/><rect fill="#FFFFFF" height="75.3984" style="stroke:#000000;stroke-width:1.0;" width="380.2842" x="607.7446" y="610.7656"/><line style="stroke:#000000;stroke-width:1.0;" x1="28" x2="28" y1="128.9063" y2="790.5625"/><line style="stroke:#000000;stroke-width:1.0;" x1="118.9102" x2="118.9102" y1="128.9063" y2="790.5625"/><line style="stroke:#000000;stroke-width:1.0;" x1="388.7041" x2="388.7041" y1="128.9063" y2="790.5625"/><line style="stroke:#000000;stroke-width:1.0;" x1="519.6265" x2="519.6265" y1="128.9063" y2="790.5625"/><line style="stroke:#000000;stroke-width:1.0;" x1="665.7446" x2="665.7446" y1="128.9063" y2="790.5625"/><line style="stroke:#000000;stroke-width:1.0;" x1="888.2759" x2="888.2759" y1="128.9063" y2="790.5625"/><line style="stroke:#000000;stroke-width:1.0;" x1="960.0288" x2="960.0288" y1="128.9063" y2="790.5625"/><text fill="#000000" font-family="Verdana" font-size="14" lengthAdjust="spacing" textLength="31.9102" x="10" y="125.6045">User</text><ellipse cx="28.9551" cy="60.6094" fill="#FFFFFF" rx="8" ry="8" style="stroke:#000000;stroke-width:1.0;"/><path d="M28.9551,68.6094 L28.9551,95.6094 M15.9551,76.6094 L41.9551,76.6094 M28.9551,95.6094 L15.9551,110.6094 M28.9551,95.6094 L41.9551,110.6094 " fill="none" style="stroke:#000000;stroke-width:1.0;"/><text fill="#000000" font-family="Verdana" font-size="14" lengthAdjust="spacing" textLength="31.9102" x="10" y="802.5576">User</text><ellipse cx="28.9551" cy="814.8594" fill="#FFFFFF" rx="8" ry="8" style="stroke:#000000;stroke-width:1.0;"/><path d="M28.9551,822.8594 L28.9551,849.8594 M15.9551,830.8594 L41.9551,830.8594 M28.9551,849.8594 L15.9551,864.8594 M28.9551,849.8594 L41.9551,864.8594 " fill="none" style="stroke:#000000;stroke-width:1.0;"/><rect fill="#FFFFFF" height="30.2969" rx="2.5" ry="2.5" style="stroke:#000000;stroke-width:1.0;" width="102.1357" x="67.9102" y="97.6094"/><text fill="#000000" font-family="Verdana" font-size="14" lengthAdjust="spacing" textLength="88.1357" x="74.9102" y="117.6045">Microservice</text><rect fill="#FFFFFF" height="30.2969" rx="2.5" ry="2.5" style="stroke:#000000;stroke-width:1.0;" width="102.1357" x="67.9102" y="789.5625"/><text fill="#000000" font-family="Verdana" font-size="14" lengthAdjust="spacing" textLength="88.1357" x="74.9102" y="809.5576">Microservice</text><rect fill="#FFFFFF" height="46.5938" rx="2.5" ry="2.5" style="stroke:#000000;stroke-width:1.0;" width="96.8721" x="340.7041" y="81.3125"/><text fill="#000000" font-family="Verdana" font-size="14" lengthAdjust="spacing" textLength="82.8721" x="347.7041" y="101.3076">ammoclient</text><text fill="#000000" font-family="Verdana" font-size="14" lengthAdjust="spacing" textLength="36.8047" x="370.7378" y="117.6045">(pkg)</text><rect fill="#FFFFFF" height="46.5938" rx="2.5" ry="2.5" style="stroke:#000000;stroke-width:1.0;" width="96.8721" x="340.7041" y="789.5625"/><text fill="#000000" font-family="Verdana" font-size="14" lengthAdjust="spacing" textLength="82.8721" x="347.7041" y="809.5576">ammoclient</text><text fill="#000000" font-family="Verdana" font-size="14" lengthAdjust="spacing" textLength="36.8047" x="370.7378" y="825.8545">(pkg)</text><path d="M495.6265,102.6094 L545.0015,102.6094 C550.0015,102.6094 550.0015,115.7578 550.0015,115.7578 C550.0015,115.7578 550.0015,128.9063 545.0015,128.9063 L495.6265,128.9063 C490.6265,128.9063 490.6265,115.7578 490.6265,115.7578 C490.6265,115.7578 490.6265,102.6094 495.6265,102.6094 " fill="#FFFFFF" style="stroke:#000000;stroke-width:1.0;"/><path d="M545.0015,102.6094 C540.0015,102.6094 540.0015,115.7578 540.0015,115.7578 C540.0015,128.9063 545.0015,128.9063 545.0015,128.9063 " fill="none" style="stroke:#000000;stroke-width:1.0;"/><text fill="#000000" font-family="Verdana" font-size="14" lengthAdjust="spacing" textLength="39.375" x="495.6265" y="120.6045">Kafka</text><path d="M495.6265,789.5625 L545.0015,789.5625 C550.0015,789.5625 550.0015,802.7109 550.0015,802.7109 C550.0015,802.7109 550.0015,815.8594 545.0015,815.8594 L495.6265,815.8594 C490.6265,815.8594 490.6265,802.7109 490.6265,802.7109 C490.6265,802.7109 490.6265,789.5625 495.6265,789.5625 " fill="#FFFFFF" style="stroke:#000000;stroke-width:1.0;"/><path d="M545.0015,789.5625 C540.0015,789.5625 540.0015,802.7109 540.0015,802.7109 C540.0015,815.8594 545.0015,815.8594 545.0015,815.8594 " fill="none" style="stroke:#000000;stroke-width:1.0;"/><text fill="#000000" font-family="Verdana" font-size="14" lengthAdjust="spacing" textLength="39.375" x="495.6265" y="807.5576">Kafka</text><rect fill="#FFFFFF" height="30.2969" rx="2.5" ry="2.5" style="stroke:#000000;stroke-width:1.0;" width="76.2412" x="627.7446" y="97.6094"/><text fill="#000000" font-family="Verdana" font-size="14" lengthAdjust="spacing" textLength="62.2412" x="634.7446" y="117.6045">Collector</text><rect fill="#FFFFFF" height="30.2969" rx="2.5" ry="2.5" style="stroke:#000000;stroke-width:1.0;" width="76.2412" x="627.7446" y="789.5625"/><text fill="#000000" font-family="Verdana" font-size="14" lengthAdjust="spacing" textLength="62.2412" x="634.7446" y="809.5576">Collector</text><text fill="#000000" font-family="Verdana" font-size="14" lengthAdjust="spacing" textLength="80.7529" x="845.2759" y="125.6045">PostgreSQL</text><path d="M870.6523,76.6094 C870.6523,66.6094 888.6523,66.6094 888.6523,66.6094 C888.6523,66.6094 906.6523,66.6094 906.6523,76.6094 L906.6523,102.6094 C906.6523,112.6094 888.6523,112.6094 888.6523,112.6094 C888.6523,112.6094 870.6523,112.6094 870.6523,102.6094 L870.6523,76.6094 " fill="#FFFFFF" style="stroke:#000000;stroke-width:1.5;"/><path d="M870.6523,76.6094 C870.6523,86.6094 888.6523,86.6094 888.6523,86.6094 C888.6523,86.6094 906.6523,86.6094 906.6523,76.6094 " fill="none" style="stroke:#000000;stroke-width:1.5;"/><text fill="#000000" font-family="Verdana" font-size="14" lengthAdjust="spacing" textLength="80.7529" x="845.2759" y="802.5576">PostgreSQL</text><path d="M870.6523,815.8594 C870.6523,805.8594 888.6523,805.8594 888.6523,805.8594 C888.6523,805.8594 906.6523,805.8594 906.6523,815.8594 L906.6523,841.8594 C906.6523,851.8594 888.6523,851.8594 888.6523,851.8594 C888.6523,851.8594 870.6523,851.8594 870.6523,841.8594 L870.6523,815.8594 " fill="#FFFFFF" style="stroke:#000000;stroke-width:1.5;"/><path d="M870.6523,815.8594 C870.6523,825.8594 888.6523,825.8594 888.6523,825.8594 C888.6523,825.8594 906.6523,825.8594 906.6523,815.8594 " fill="none" style="stroke:#000000;stroke-width:1.5;"/><text fill="#000000" font-family="Verdana" font-size="14" lengthAdjust="spacing" textLength="17.7939" x="948.1318" y="125.6045">S3</text><path d="M942.0288,76.6094 C942.0288,66.6094 960.0288,66.6094 960.0288,66.6094 C960.0288,66.6094 978.0288,66.6094 978.0288,76.6094 L978.0288,102.6094 C978.0288,112.6094 960.0288,112.6094 960.0288,112.6094 C960.0288,112.6094 942.0288,112.6094 942.0288,102.6094 L942.0288,76.6094 " fill="#FFFFFF" style="stroke:#000000;stroke-width:1.5;"/><path d="M942.0288,76.6094 C942.0288,86.6094 960.0288,86.6094 960.0288,86.6094 C960.0288,86.6094 978.0288,86.6094 978.0288,76.6094 " fill="none" style="stroke:#000000;stroke-width:1.5;"/><text fill="#000000" font-family="Verdana" font-size="14" lengthAdjust="spacing" textLength="17.7939" x="948.1318" y="802.5576">S3</text><path d="M942.0288,815.8594 C942.0288,805.8594 960.0288,805.8594 960.0288,805.8594 C960.0288,805.8594 978.0288,805.8594 978.0288,815.8594 L978.0288,841.8594 C978.0288,851.8594 960.0288,851.8594 960.0288,851.8594 C960.0288,851.8594 942.0288,851.8594 942.0288,841.8594 L942.0288,815.8594 " fill="#FFFFFF" style="stroke:#000000;stroke-width:1.5;"/><path d="M942.0288,815.8594 C942.0288,825.8594 960.0288,825.8594 960.0288,825.8594 C960.0288,825.8594 978.0288,825.8594 978.0288,815.8594 " fill="none" style="stroke:#000000;stroke-width:1.5;"/><polygon fill="#000000" points="653.8652,156.0391,663.8652,160.0391,653.8652,164.0391,657.8652,160.0391" style="stroke:#000000;stroke-width:1.0;"/><line style="stroke:#000000;stroke-width:1.0;" x1="28.9551" x2="659.8652" y1="160.0391" y2="160.0391"/><text fill="#000000" font-family="Verdana" font-size="13" lengthAdjust="spacing" textLength="64.2383" x="35.9551" y="154.9731">Send task</text><polygon fill="#000000" points="876.6523,185.1719,886.6523,189.1719,876.6523,193.1719,880.6523,189.1719" style="stroke:#000000;stroke-width:1.0;"/><line style="stroke:#000000;stroke-width:1.0;" x1="665.8652" x2="882.6523" y1="189.1719" y2="189.1719"/><text fill="#000000" font-family="Verdana" font-size="13" lengthAdjust="spacing" textLength="109.9858" x="672.8652" y="184.106">Create collection</text><polygon fill="#000000" points="377.1401,214.3047,387.1401,218.3047,377.1401,222.3047,381.1401,218.3047" style="stroke:#000000;stroke-width:1.0;"/><line style="stroke:#000000;stroke-width:1.0;" x1="118.978" x2="383.1401" y1="218.3047" y2="218.3047"/><text fill="#000000" font-family="Verdana" font-size="13" lengthAdjust="spacing" textLength="246.1621" x="125.978" y="213.2388">SendGRPCRequest/SendHTTPRequest</text><polygon fill="#000000" points="508.314,243.4375,518.314,247.4375,508.314,251.4375,512.314,247.4375" style="stroke:#000000;stroke-width:1.0;"/><line style="stroke:#000000;stroke-width:1.0;" x1="389.1401" x2="514.314" y1="247.4375" y2="247.4375"/><text fill="#000000" font-family="Verdana" font-size="13" lengthAdjust="spacing" textLength="107.1738" x="396.1401" y="242.3716">Publish requests</text><path d="M480.6265,262.4375 L557.2505,262.4375 L557.2505,269.5703 L547.2505,279.5703 L480.6265,279.5703 L480.6265,262.4375 " fill="#FFFFFF" style="stroke:#000000;stroke-width:1.0;"/><rect fill="none" height="177.7969" style="stroke:#000000;stroke-width:1.0;" width="471.4023" x="480.6265" y="262.4375"/><text fill="#000000" font-family="Verdana" font-size="13" font-weight="bold" lengthAdjust="spacing" textLength="31.624" x="495.6265" y="275.5044">loop</text><text fill="#000000" font-family="Verdana" font-size="11" font-weight="bold" lengthAdjust="spacing" textLength="155.5146" x="572.2505" y="274.6479">[Background Processing]</text><polygon fill="#000000" points="531.314,296.7031,521.314,300.7031,531.314,304.7031,527.314,300.7031" style="stroke:#000000;stroke-width:1.0;"/><line style="stroke:#000000;stroke-width:1.0;" x1="525.314" x2="664.8652" y1="300.7031" y2="300.7031"/><text fill="#000000" font-family="Verdana" font-size="13" lengthAdjust="spacing" textLength="121.5513" x="537.314" y="295.6372">Consume requests</text><line style="stroke:#000000;stroke-width:1.0;" x1="665.8652" x2="707.8652" y1="329.8359" y2="329.8359"/><line style="stroke:#000000;stroke-width:1.0;" x1="707.8652" x2="707.8652" y1="329.8359" y2="342.8359"/><line style="stroke:#000000;stroke-width:1.0;" x1="666.8652" x2="707.8652" y1="342.8359" y2="342.8359"/><polygon fill="#000000" points="676.8652,338.8359,666.8652,342.8359,676.8652,346.8359,672.8652,342.8359" style="stroke:#000000;stroke-width:1.0;"/><text fill="#000000" font-family="Verdana" font-size="13" lengthAdjust="spacing" textLength="208.7871" x="672.8652" y="324.77">Check against collection criteria</text><path d="M607.7446,357.8359 L672.1875,357.8359 L672.1875,364.9688 L662.1875,374.9688 L607.7446,374.9688 L607.7446,357.8359 " fill="#FFFFFF" style="stroke:#000000;stroke-width:1.0;"/><rect fill="none" height="75.3984" style="stroke:#000000;stroke-width:1.0;" width="334.2842" x="607.7446" y="357.8359"/><text fill="#000000" font-family="Verdana" font-size="13" font-weight="bold" lengthAdjust="spacing" textLength="19.4429" x="622.7446" y="370.9028">alt</text><text fill="#000000" font-family="Verdana" font-size="11" font-weight="bold" lengthAdjust="spacing" textLength="110.9238" x="687.1875" y="370.0464">[Matches criteria]</text><polygon fill="#000000" points="876.6523,392.1016,886.6523,396.1016,876.6523,400.1016,880.6523,396.1016" style="stroke:#000000;stroke-width:1.0;"/><line style="stroke:#000000;stroke-width:1.0;" x1="665.8652" x2="882.6523" y1="396.1016" y2="396.1016"/><text fill="#000000" font-family="Verdana" font-size="13" lengthAdjust="spacing" textLength="88.48" x="672.8652" y="391.0356">Store request</text><polygon fill="#000000" points="876.6523,421.2344,886.6523,425.2344,876.6523,429.2344,880.6523,425.2344" style="stroke:#000000;stroke-width:1.0;"/><line style="stroke:#000000;stroke-width:1.0;" x1="665.8652" x2="882.6523" y1="425.2344" y2="425.2344"/><text fill="#000000" font-family="Verdana" font-size="13" lengthAdjust="spacing" textLength="110.3096" x="672.8652" y="420.1685">Link to collection</text><line style="stroke:#000000;stroke-width:1.0;" x1="665.8652" x2="707.8652" y1="468.3672" y2="468.3672"/><line style="stroke:#000000;stroke-width:1.0;" x1="707.8652" x2="707.8652" y1="468.3672" y2="481.3672"/><line style="stroke:#000000;stroke-width:1.0;" x1="666.8652" x2="707.8652" y1="481.3672" y2="481.3672"/><polygon fill="#000000" points="676.8652,477.3672,666.8652,481.3672,676.8652,485.3672,672.8652,481.3672" style="stroke:#000000;stroke-width:1.0;"/><text fill="#000000" font-family="Verdana" font-size="13" lengthAdjust="spacing" textLength="159.999" x="672.8652" y="463.3013">Monitor collection status</text><path d="M607.7446,496.3672 L672.1875,496.3672 L672.1875,503.5 L662.1875,513.5 L607.7446,513.5 L607.7446,496.3672 " fill="#FFFFFF" style="stroke:#000000;stroke-width:1.0;"/><rect fill="none" height="75.3984" style="stroke:#000000;stroke-width:1.0;" width="380.2842" x="607.7446" y="496.3672"/><text fill="#000000" font-family="Verdana" font-size="13" font-weight="bold" lengthAdjust="spacing" textLength="19.4429" x="622.7446" y="509.4341">alt</text><text fill="#000000" font-family="Verdana" font-size="11" font-weight="bold" lengthAdjust="spacing" textLength="111.7349" x="687.1875" y="508.5776">[Task completion]</text><polygon fill="#000000" points="876.6523,530.6328,886.6523,534.6328,876.6523,538.6328,880.6523,534.6328" style="stroke:#000000;stroke-width:1.0;"/><line style="stroke:#000000;stroke-width:1.0;" x1="665.8652" x2="882.6523" y1="534.6328" y2="534.6328"/><text fill="#000000" font-family="Verdana" font-size="13" lengthAdjust="spacing" textLength="105.3267" x="672.8652" y="529.5669">Gather requests</text><polygon fill="#000000" points="948.0288,559.7656,958.0288,563.7656,948.0288,567.7656,952.0288,563.7656" style="stroke:#000000;stroke-width:1.0;"/><line style="stroke:#000000;stroke-width:1.0;" x1="665.8652" x2="954.0288" y1="563.7656" y2="563.7656"/><text fill="#000000" font-family="Verdana" font-size="13" lengthAdjust="spacing" textLength="124.4712" x="672.8652" y="558.6997">Zip &amp; store archive</text><path d="M607.7446,610.7656 L747.001,610.7656 L747.001,617.8984 L737.001,627.8984 L607.7446,627.8984 L607.7446,610.7656 " fill="#FFFFFF" style="stroke:#000000;stroke-width:1.0;"/><rect fill="none" height="75.3984" style="stroke:#000000;stroke-width:1.0;" width="380.2842" x="607.7446" y="610.7656"/><text fill="#000000" font-family="Verdana" font-size="13" font-weight="bold" lengthAdjust="spacing" textLength="94.2563" x="622.7446" y="623.8325">Maintenance</text><polygon fill="#000000" points="876.6523,645.0313,886.6523,649.0313,876.6523,653.0313,880.6523,649.0313" style="stroke:#000000;stroke-width:1.0;"/><line style="stroke:#000000;stroke-width:1.0;" x1="665.8652" x2="882.6523" y1="649.0313" y2="649.0313"/><text fill="#000000" font-family="Verdana" font-size="13" lengthAdjust="spacing" textLength="121.4497" x="672.8652" y="643.9653">Clean old requests</text><polygon fill="#000000" points="948.0288,674.1641,958.0288,678.1641,948.0288,682.1641,952.0288,678.1641" style="stroke:#000000;stroke-width:1.0;"/><line style="stroke:#000000;stroke-width:1.0;" x1="665.8652" x2="954.0288" y1="678.1641" y2="678.1641"/><text fill="#000000" font-family="Verdana" font-size="13" lengthAdjust="spacing" textLength="119.7485" x="672.8652" y="673.0981">Clean old archives</text><polygon fill="#000000" points="653.8652,710.2969,663.8652,714.2969,653.8652,718.2969,657.8652,714.2969" style="stroke:#000000;stroke-width:1.0;"/><line style="stroke:#000000;stroke-width:1.0;" x1="28.9551" x2="659.8652" y1="714.2969" y2="714.2969"/><text fill="#000000" font-family="Verdana" font-size="13" lengthAdjust="spacing" textLength="143.5586" x="35.9551" y="709.231">Check collection state</text><polygon fill="#000000" points="653.8652,739.4297,663.8652,743.4297,653.8652,747.4297,657.8652,743.4297" style="stroke:#000000;stroke-width:1.0;"/><line style="stroke:#000000;stroke-width:1.0;" x1="28.9551" x2="659.8652" y1="743.4297" y2="743.4297"/><text fill="#000000" font-family="Verdana" font-size="13" lengthAdjust="spacing" textLength="129.7271" x="35.9551" y="738.3638">Retrieve zip archive</text><polygon fill="#000000" points="948.0288,768.5625,958.0288,772.5625,948.0288,776.5625,952.0288,772.5625" style="stroke:#000000;stroke-width:1.0;"/><line style="stroke:#000000;stroke-width:1.0;stroke-dasharray:2.0,2.0;" x1="28.9551" x2="954.0288" y1="772.5625" y2="772.5625"/><text fill="#000000" font-family="Verdana" font-size="13" lengthAdjust="spacing" textLength="196.6885" x="35.9551" y="767.4966">Retrieve zip archive (optional)</text><!--SRC=[VLF1Rjim3BtpAxWSYlOmxD1R3WCs7pfWBU35AGOCkx0AQmjM94-YMs38nvUAZTW9aW0sO5AFv7kFyYTfUClOER8UGAmunc_RRS0YECT6GiJV8RQlBhm3q3v-JXoXeoZMs8wyu9CrCMZopHg6V8gVlqxrIwpORr0ejOXmL9W75SwoVbB21Mbezk5VVzkrzTq2_lNSC_warvQEAXV771Uv_X31XeHUA36M8KaTkVhrEEMgUu19d3ATG4ii8fCmck7S1lLahYx39zA3ieTLMQnOYIRvakCVwtKvnZ0Jg9Lx6Kii-nTdKuDn02K05qA7tycqTGozUbN6O3Wbwsj0FE8wjYY2JxskxT3Y13OplsZOj4YrxZV9J1YQQ8MZ9QtLXvpkaSGqdEOd9ttdLbMQEp2u3dsqlaK9SriHrIh8BrnY_XIypTaPvoGalHgMsQxpXJ9XspaUErwS_q1wo-D5jwhx9Vwn7Tve_wo9ecdi6wilUtwxtGuWRwPJXwmNzkJreb-PLpWcZy5jhewSKEF0DCmxymSDIpmnuko_jcA9bfNyVnKqzXrnuzXp2BmDNUvBxku3]--></g></svg>