<svg xmlns="http://www.w3.org/2000/svg" xmlns:xlink="http://www.w3.org/1999/xlink" contentStyleType="text/css" height="1206px" preserveAspectRatio="none" style="width:751px;height:1206px;background:#FFFFFF;" version="1.1" viewBox="0 0 751 1206" width="751px" zoomAndPan="magnify"><defs/><g><rect fill="#ADD8E6" height="1194.2422" style="stroke:#000000;stroke-width:1.0;" width="180.4326" x="350.4912" y="6"/><text fill="#000000" font-family="Verdana" font-size="13" font-weight="bold" lengthAdjust="spacing" textLength="116.0732" x="382.6709" y="18.0669">Ammo Collector</text><line style="stroke:#000000;stroke-width:1.0;" x1="28" x2="28" y1="82.2969" y2="1119.9453"/><line style="stroke:#000000;stroke-width:1.0;" x1="142.9102" x2="142.9102" y1="82.2969" y2="1119.9453"/><line style="stroke:#000000;stroke-width:1.0;" x1="294.4688" x2="294.4688" y1="82.2969" y2="1119.9453"/><line style="stroke:#000000;stroke-width:1.0;" x1="440.4912" x2="440.4912" y1="82.2969" y2="1119.9453"/><line style="stroke:#000000;stroke-width:1.0;" x1="644.2593" x2="644.2593" y1="82.2969" y2="1119.9453"/><line style="stroke:#000000;stroke-width:1.0;" x1="716.0122" x2="716.0122" y1="82.2969" y2="1119.9453"/><text fill="#000000" font-family="Verdana" font-size="14" lengthAdjust="spacing" textLength="31.9102" x="10" y="78.9951">User</text><ellipse cx="28.9551" cy="14" fill="#FFFFFF" rx="8" ry="8" style="stroke:#000000;stroke-width:1.0;"/><path d="M28.9551,22 L28.9551,49 M15.9551,30 L41.9551,30 M28.9551,49 L15.9551,64 M28.9551,49 L41.9551,64 " fill="none" style="stroke:#000000;stroke-width:1.0;"/><text fill="#000000" font-family="Verdana" font-size="14" lengthAdjust="spacing" textLength="31.9102" x="10" y="1131.9404">User</text><ellipse cx="28.9551" cy="1144.2422" fill="#FFFFFF" rx="8" ry="8" style="stroke:#000000;stroke-width:1.0;"/><path d="M28.9551,1152.2422 L28.9551,1179.2422 M15.9551,1160.2422 L41.9551,1160.2422 M28.9551,1179.2422 L15.9551,1194.2422 M28.9551,1179.2422 L41.9551,1194.2422 " fill="none" style="stroke:#000000;stroke-width:1.0;"/><rect fill="#FFFFFF" height="46.5938" rx="2.5" ry="2.5" style="stroke:#000000;stroke-width:1.0;" width="131.0244" x="77.9102" y="34.7031"/><text fill="#000000" font-family="Verdana" font-size="14" lengthAdjust="spacing" textLength="51.7412" x="117.5518" y="54.6982">Service</text><text fill="#000000" font-family="Verdana" font-size="14" lengthAdjust="spacing" textLength="117.0244" x="84.9102" y="70.9951">with ammoclient</text><rect fill="#FFFFFF" height="46.5938" rx="2.5" ry="2.5" style="stroke:#000000;stroke-width:1.0;" width="131.0244" x="77.9102" y="1118.9453"/><text fill="#000000" font-family="Verdana" font-size="14" lengthAdjust="spacing" textLength="51.7412" x="117.5518" y="1138.9404">Service</text><text fill="#000000" font-family="Verdana" font-size="14" lengthAdjust="spacing" textLength="117.0244" x="84.9102" y="1155.2373">with ammoclient</text><path d="M270.4688,56 L319.8438,56 C324.8438,56 324.8438,69.1484 324.8438,69.1484 C324.8438,69.1484 324.8438,82.2969 319.8438,82.2969 L270.4688,82.2969 C265.4688,82.2969 265.4688,69.1484 265.4688,69.1484 C265.4688,69.1484 265.4688,56 270.4688,56 " fill="#FFFFFF" style="stroke:#000000;stroke-width:1.0;"/><path d="M319.8438,56 C314.8438,56 314.8438,69.1484 314.8438,69.1484 C314.8438,82.2969 319.8438,82.2969 319.8438,82.2969 " fill="none" style="stroke:#000000;stroke-width:1.0;"/><text fill="#000000" font-family="Verdana" font-size="14" lengthAdjust="spacing" textLength="39.375" x="270.4688" y="73.9951">Kafka</text><path d="M270.4688,1118.9453 L319.8438,1118.9453 C324.8438,1118.9453 324.8438,1132.0938 324.8438,1132.0938 C324.8438,1132.0938 324.8438,1145.2422 319.8438,1145.2422 L270.4688,1145.2422 C265.4688,1145.2422 265.4688,1132.0938 265.4688,1132.0938 C265.4688,1132.0938 265.4688,1118.9453 270.4688,1118.9453 " fill="#FFFFFF" style="stroke:#000000;stroke-width:1.0;"/><path d="M319.8438,1118.9453 C314.8438,1118.9453 314.8438,1132.0938 314.8438,1132.0938 C314.8438,1145.2422 319.8438,1145.2422 319.8438,1145.2422 " fill="none" style="stroke:#000000;stroke-width:1.0;"/><text fill="#000000" font-family="Verdana" font-size="14" lengthAdjust="spacing" textLength="39.375" x="270.4688" y="1136.9404">Kafka</text><rect fill="#FFFFFF" height="46.5938" rx="2.5" ry="2.5" style="stroke:#000000;stroke-width:1.0;" width="132.4326" x="374.4912" y="34.7031"/><text fill="#000000" font-family="Verdana" font-size="14" lengthAdjust="spacing" textLength="118.4326" x="381.4912" y="54.6982">Collector Service</text><text fill="#000000" font-family="Verdana" font-size="14" lengthAdjust="spacing" textLength="88.4844" x="396.4653" y="70.9951">(REST/gRPC)</text><rect fill="#FFFFFF" height="46.5938" rx="2.5" ry="2.5" style="stroke:#000000;stroke-width:1.0;" width="132.4326" x="374.4912" y="1118.9453"/><text fill="#000000" font-family="Verdana" font-size="14" lengthAdjust="spacing" textLength="118.4326" x="381.4912" y="1138.9404">Collector Service</text><text fill="#000000" font-family="Verdana" font-size="14" lengthAdjust="spacing" textLength="88.4844" x="396.4653" y="1155.2373">(REST/gRPC)</text><text fill="#000000" font-family="Verdana" font-size="14" lengthAdjust="spacing" textLength="80.7529" x="601.2593" y="78.9951">PostgreSQL</text><path d="M626.6357,30 C626.6357,20 644.6357,20 644.6357,20 C644.6357,20 662.6357,20 662.6357,30 L662.6357,56 C662.6357,66 644.6357,66 644.6357,66 C644.6357,66 626.6357,66 626.6357,56 L626.6357,30 " fill="#FFFFFF" style="stroke:#000000;stroke-width:1.5;"/><path d="M626.6357,30 C626.6357,40 644.6357,40 644.6357,40 C644.6357,40 662.6357,40 662.6357,30 " fill="none" style="stroke:#000000;stroke-width:1.5;"/><text fill="#000000" font-family="Verdana" font-size="14" lengthAdjust="spacing" textLength="80.7529" x="601.2593" y="1131.9404">PostgreSQL</text><path d="M626.6357,1145.2422 C626.6357,1135.2422 644.6357,1135.2422 644.6357,1135.2422 C644.6357,1135.2422 662.6357,1135.2422 662.6357,1145.2422 L662.6357,1171.2422 C662.6357,1181.2422 644.6357,1181.2422 644.6357,1181.2422 C644.6357,1181.2422 626.6357,1181.2422 626.6357,1171.2422 L626.6357,1145.2422 " fill="#FFFFFF" style="stroke:#000000;stroke-width:1.5;"/><path d="M626.6357,1145.2422 C626.6357,1155.2422 644.6357,1155.2422 644.6357,1155.2422 C644.6357,1155.2422 662.6357,1155.2422 662.6357,1145.2422 " fill="none" style="stroke:#000000;stroke-width:1.5;"/><text fill="#000000" font-family="Verdana" font-size="14" lengthAdjust="spacing" textLength="17.7939" x="704.1152" y="78.9951">S3</text><path d="M698.0122,30 C698.0122,20 716.0122,20 716.0122,20 C716.0122,20 734.0122,20 734.0122,30 L734.0122,56 C734.0122,66 716.0122,66 716.0122,66 C716.0122,66 698.0122,66 698.0122,56 L698.0122,30 " fill="#FFFFFF" style="stroke:#000000;stroke-width:1.5;"/><path d="M698.0122,30 C698.0122,40 716.0122,40 716.0122,40 C716.0122,40 734.0122,40 734.0122,30 " fill="none" style="stroke:#000000;stroke-width:1.5;"/><text fill="#000000" font-family="Verdana" font-size="14" lengthAdjust="spacing" textLength="17.7939" x="704.1152" y="1131.9404">S3</text><path d="M698.0122,1145.2422 C698.0122,1135.2422 716.0122,1135.2422 716.0122,1135.2422 C716.0122,1135.2422 734.0122,1135.2422 734.0122,1145.2422 L734.0122,1171.2422 C734.0122,1181.2422 716.0122,1181.2422 716.0122,1181.2422 C716.0122,1181.2422 698.0122,1181.2422 698.0122,1171.2422 L698.0122,1145.2422 " fill="#FFFFFF" style="stroke:#000000;stroke-width:1.5;"/><path d="M698.0122,1145.2422 C698.0122,1155.2422 716.0122,1155.2422 716.0122,1155.2422 C716.0122,1155.2422 734.0122,1155.2422 734.0122,1145.2422 " fill="none" style="stroke:#000000;stroke-width:1.5;"/><rect fill="#FFFFFF" height="3" style="stroke:#FFFFFF;stroke-width:1.0;" width="734.0122" x="5" y="112.8633"/><line style="stroke:#000000;stroke-width:0.5;" x1="5" x2="739.0122" y1="112.8633" y2="112.8633"/><line style="stroke:#000000;stroke-width:0.5;" x1="5" x2="739.0122" y1="115.8633" y2="115.8633"/><rect fill="#FFFFFF" height="23.1328" style="stroke:#000000;stroke-width:1.0;" width="177.3188" x="283.3467" y="102.2969"/><text fill="#000000" font-family="Verdana" font-size="13" font-weight="bold" lengthAdjust="spacing" textLength="158.793" x="289.3467" y="118.3638">Setup Collection Task</text><polygon fill="#000000" points="428.7075,152.5625,438.7075,156.5625,428.7075,160.5625,432.7075,156.5625" style="stroke:#000000;stroke-width:1.0;"/><line style="stroke:#000000;stroke-width:1.0;" x1="28.9551" x2="434.7075" y1="156.5625" y2="156.5625"/><text fill="#000000" font-family="Verdana" font-size="13" lengthAdjust="spacing" textLength="223.4502" x="35.9551" y="151.4966">Create task with collection criteria</text><polygon fill="#000000" points="632.6357,181.6953,642.6357,185.6953,632.6357,189.6953,636.6357,185.6953" style="stroke:#000000;stroke-width:1.0;"/><line style="stroke:#000000;stroke-width:1.0;" x1="440.7075" x2="638.6357" y1="185.6953" y2="185.6953"/><text fill="#000000" font-family="Verdana" font-size="13" lengthAdjust="spacing" textLength="109.9858" x="447.7075" y="180.6294">Create collection</text><polygon fill="#000000" points="39.9551,210.8281,29.9551,214.8281,39.9551,218.8281,35.9551,214.8281" style="stroke:#000000;stroke-width:1.0;"/><line style="stroke:#000000;stroke-width:1.0;stroke-dasharray:2.0,2.0;" x1="33.9551" x2="439.7075" y1="214.8281" y2="214.8281"/><text fill="#000000" font-family="Verdana" font-size="13" lengthAdjust="spacing" textLength="128.4321" x="45.9551" y="209.7622">Return collection ID</text><rect fill="#FFFFFF" height="3" style="stroke:#FFFFFF;stroke-width:1.0;" width="734.0122" x="5" y="243.3945"/><line style="stroke:#000000;stroke-width:0.5;" x1="5" x2="739.0122" y1="243.3945" y2="243.3945"/><line style="stroke:#000000;stroke-width:0.5;" x1="5" x2="739.0122" y1="246.3945" y2="246.3945"/><rect fill="#FFFFFF" height="23.1328" style="stroke:#000000;stroke-width:1.0;" width="155.9717" x="294.0203" y="232.8281"/><text fill="#000000" font-family="Verdana" font-size="13" font-weight="bold" lengthAdjust="spacing" textLength="137.4458" x="300.0203" y="248.895">Request Collection</text><polygon fill="#000000" points="283.1563,298.2266,293.1563,302.2266,283.1563,306.2266,287.1563,302.2266" style="stroke:#000000;stroke-width:1.0;"/><line style="stroke:#000000;stroke-width:1.0;" x1="143.4224" x2="289.1563" y1="302.2266" y2="302.2266"/><text fill="#000000" font-family="Verdana" font-size="13" lengthAdjust="spacing" textLength="127.7339" x="150.4224" y="282.0278">GRPC/HTTP request</text><text fill="#000000" font-family="Verdana" font-size="13" lengthAdjust="spacing" textLength="62.8608" x="150.4224" y="297.1606">json body</text><polygon fill="#000000" points="306.1563,327.3594,296.1563,331.3594,306.1563,335.3594,302.1563,331.3594" style="stroke:#000000;stroke-width:1.0;"/><line style="stroke:#000000;stroke-width:1.0;" x1="300.1563" x2="439.7075" y1="331.3594" y2="331.3594"/><text fill="#000000" font-family="Verdana" font-size="13" lengthAdjust="spacing" textLength="121.5513" x="312.1563" y="326.2935">Consume requests</text><line style="stroke:#000000;stroke-width:1.0;" x1="440.7075" x2="482.7075" y1="375.625" y2="375.625"/><line style="stroke:#000000;stroke-width:1.0;" x1="482.7075" x2="482.7075" y1="375.625" y2="388.625"/><line style="stroke:#000000;stroke-width:1.0;" x1="441.7075" x2="482.7075" y1="388.625" y2="388.625"/><polygon fill="#000000" points="451.7075,384.625,441.7075,388.625,451.7075,392.625,447.7075,388.625" style="stroke:#000000;stroke-width:1.0;"/><text fill="#000000" font-family="Verdana" font-size="13" lengthAdjust="spacing" textLength="145.8628" x="447.7075" y="355.4263">Check request against</text><text fill="#000000" font-family="Verdana" font-size="13" lengthAdjust="spacing" textLength="112.6265" x="447.7075" y="370.5591">collection criteria</text><polygon fill="#000000" points="632.6357,428.8906,642.6357,432.8906,632.6357,436.8906,636.6357,432.8906" style="stroke:#000000;stroke-width:1.0;"/><line style="stroke:#000000;stroke-width:1.0;" x1="440.7075" x2="638.6357" y1="432.8906" y2="432.8906"/><text fill="#000000" font-family="Verdana" font-size="13" lengthAdjust="spacing" textLength="157.8662" x="447.7075" y="412.6919">Save matching requests</text><text fill="#000000" font-family="Verdana" font-size="13" lengthAdjust="spacing" textLength="122.9287" x="447.7075" y="427.8247">linked to collection</text><rect fill="#FFFFFF" height="3" style="stroke:#FFFFFF;stroke-width:1.0;" width="734.0122" x="5" y="461.457"/><line style="stroke:#000000;stroke-width:0.5;" x1="5" x2="739.0122" y1="461.457" y2="461.457"/><line style="stroke:#000000;stroke-width:0.5;" x1="5" x2="739.0122" y1="464.457" y2="464.457"/><rect fill="#FFFFFF" height="23.1328" style="stroke:#000000;stroke-width:1.0;" width="187.0054" x="278.5034" y="450.8906"/><text fill="#000000" font-family="Verdana" font-size="13" font-weight="bold" lengthAdjust="spacing" textLength="168.4795" x="284.5034" y="466.9575">Collections Completion</text><polygon fill="#000000" points="632.6357,501.1563,642.6357,505.1563,632.6357,509.1563,636.6357,505.1563" style="stroke:#000000;stroke-width:1.0;"/><line style="stroke:#000000;stroke-width:1.0;" x1="440.7075" x2="638.6357" y1="505.1563" y2="505.1563"/><text fill="#000000" font-family="Verdana" font-size="13" lengthAdjust="spacing" textLength="152.8833" x="447.7075" y="500.0903">Fetch active collections</text><line style="stroke:#000000;stroke-width:1.0;" x1="440.7075" x2="482.7075" y1="549.4219" y2="549.4219"/><line style="stroke:#000000;stroke-width:1.0;" x1="482.7075" x2="482.7075" y1="549.4219" y2="562.4219"/><line style="stroke:#000000;stroke-width:1.0;" x1="441.7075" x2="482.7075" y1="562.4219" y2="562.4219"/><polygon fill="#000000" points="451.7075,558.4219,441.7075,562.4219,451.7075,566.4219,447.7075,562.4219" style="stroke:#000000;stroke-width:1.0;"/><text fill="#000000" font-family="Verdana" font-size="13" lengthAdjust="spacing" textLength="189.9282" x="447.7075" y="529.2231">Check collections completion</text><text fill="#000000" font-family="Verdana" font-size="13" lengthAdjust="spacing" textLength="46.1221" x="447.7075" y="544.356">criteria</text><polygon fill="#000000" points="632.6357,617.8203,642.6357,621.8203,632.6357,625.8203,636.6357,621.8203" style="stroke:#000000;stroke-width:1.0;"/><line style="stroke:#000000;stroke-width:1.0;" x1="440.7075" x2="638.6357" y1="621.8203" y2="621.8203"/><text fill="#000000" font-family="Verdana" font-size="13" lengthAdjust="spacing" textLength="148.332" x="447.7075" y="586.4888">Try acquire distributed</text><text fill="#000000" font-family="Verdana" font-size="13" lengthAdjust="spacing" textLength="168.2446" x="447.7075" y="601.6216">(postgresql advisory) lock</text><text fill="#000000" font-family="Verdana" font-size="13" lengthAdjust="spacing" textLength="100.6738" x="447.7075" y="616.7544">on collection ID</text><polygon fill="#000000" points="632.6357,646.9531,642.6357,650.9531,632.6357,654.9531,636.6357,650.9531" style="stroke:#000000;stroke-width:1.0;"/><line style="stroke:#000000;stroke-width:1.0;" x1="440.7075" x2="638.6357" y1="650.9531" y2="650.9531"/><text fill="#000000" font-family="Verdana" font-size="13" lengthAdjust="spacing" textLength="159.5166" x="447.7075" y="645.8872">Fetch collected requests</text><polygon fill="#000000" points="704.0122,676.0859,714.0122,680.0859,704.0122,684.0859,708.0122,680.0859" style="stroke:#000000;stroke-width:1.0;"/><line style="stroke:#000000;stroke-width:1.0;" x1="440.7075" x2="710.0122" y1="680.0859" y2="680.0859"/><text fill="#000000" font-family="Verdana" font-size="13" lengthAdjust="spacing" textLength="125.7344" x="447.7075" y="675.02">Save as zip archive</text><polygon fill="#000000" points="632.6357,705.2188,642.6357,709.2188,632.6357,713.2188,636.6357,709.2188" style="stroke:#000000;stroke-width:1.0;"/><line style="stroke:#000000;stroke-width:1.0;" x1="440.7075" x2="638.6357" y1="709.2188" y2="709.2188"/><text fill="#000000" font-family="Verdana" font-size="13" lengthAdjust="spacing" textLength="157.6631" x="447.7075" y="704.1528">Update collection status</text><rect fill="#FFFFFF" height="3" style="stroke:#FFFFFF;stroke-width:1.0;" width="734.0122" x="5" y="737.7852"/><line style="stroke:#000000;stroke-width:0.5;" x1="5" x2="739.0122" y1="737.7852" y2="737.7852"/><line style="stroke:#000000;stroke-width:0.5;" x1="5" x2="739.0122" y1="740.7852" y2="740.7852"/><rect fill="#FFFFFF" height="23.1328" style="stroke:#000000;stroke-width:1.0;" width="191.4995" x="276.2563" y="727.2188"/><text fill="#000000" font-family="Verdana" font-size="13" font-weight="bold" lengthAdjust="spacing" textLength="172.9736" x="282.2563" y="743.2856">Background Operations</text><polygon fill="#000000" points="632.6357,792.6172,642.6357,796.6172,632.6357,800.6172,636.6357,796.6172" style="stroke:#000000;stroke-width:1.0;"/><line style="stroke:#000000;stroke-width:1.0;" x1="440.7075" x2="638.6357" y1="796.6172" y2="796.6172"/><text fill="#000000" font-family="Verdana" font-size="13" lengthAdjust="spacing" textLength="178.7056" x="447.7075" y="776.4185">Try acquire distributed lock</text><text fill="#000000" font-family="Verdana" font-size="13" lengthAdjust="spacing" textLength="75.9116" x="447.7075" y="791.5513">on clean up</text><polygon fill="#000000" points="632.6357,821.75,642.6357,825.75,632.6357,829.75,636.6357,825.75" style="stroke:#000000;stroke-width:1.0;"/><line style="stroke:#000000;stroke-width:1.0;" x1="440.7075" x2="638.6357" y1="825.75" y2="825.75"/><text fill="#000000" font-family="Verdana" font-size="13" lengthAdjust="spacing" textLength="154.6035" x="447.7075" y="820.6841">Cleanup of old requests</text><polygon fill="#000000" points="704.0122,850.8828,714.0122,854.8828,704.0122,858.8828,708.0122,854.8828" style="stroke:#000000;stroke-width:1.0;"/><line style="stroke:#000000;stroke-width:1.0;" x1="440.7075" x2="710.0122" y1="854.8828" y2="854.8828"/><text fill="#000000" font-family="Verdana" font-size="13" lengthAdjust="spacing" textLength="152.9023" x="447.7075" y="849.8169">Cleanup of old archives</text><rect fill="#FFFFFF" height="3" style="stroke:#FFFFFF;stroke-width:1.0;" width="734.0122" x="5" y="883.4492"/><line style="stroke:#000000;stroke-width:0.5;" x1="5" x2="739.0122" y1="883.4492" y2="883.4492"/><line style="stroke:#000000;stroke-width:0.5;" x1="5" x2="739.0122" y1="886.4492" y2="886.4492"/><rect fill="#FFFFFF" height="23.1328" style="stroke:#000000;stroke-width:1.0;" width="217.9883" x="263.012" y="872.8828"/><text fill="#000000" font-family="Verdana" font-size="13" font-weight="bold" lengthAdjust="spacing" textLength="199.4624" x="269.012" y="888.9497">Collection Status &amp; Results</text><polygon fill="#000000" points="428.7075,923.1484,438.7075,927.1484,428.7075,931.1484,432.7075,927.1484" style="stroke:#000000;stroke-width:1.0;"/><line style="stroke:#000000;stroke-width:1.0;" x1="28.9551" x2="434.7075" y1="927.1484" y2="927.1484"/><text fill="#000000" font-family="Verdana" font-size="13" lengthAdjust="spacing" textLength="283.8481" x="35.9551" y="922.0825">Check collection status, collections list, etc.</text><polygon fill="#000000" points="632.6357,952.2813,642.6357,956.2813,632.6357,960.2813,636.6357,956.2813" style="stroke:#000000;stroke-width:1.0;"/><line style="stroke:#000000;stroke-width:1.0;" x1="440.7075" x2="638.6357" y1="956.2813" y2="956.2813"/><text fill="#000000" font-family="Verdana" font-size="13" lengthAdjust="spacing" textLength="150.0903" x="447.7075" y="951.2153">Query collection status</text><polygon fill="#000000" points="39.9551,981.4141,29.9551,985.4141,39.9551,989.4141,35.9551,985.4141" style="stroke:#000000;stroke-width:1.0;"/><line style="stroke:#000000;stroke-width:1.0;stroke-dasharray:2.0,2.0;" x1="33.9551" x2="439.7075" y1="985.4141" y2="985.4141"/><text fill="#000000" font-family="Verdana" font-size="13" lengthAdjust="spacing" textLength="165.7183" x="45.9551" y="980.3481">Return status and s3 URL</text><polygon fill="#000000" points="428.7075,1010.5469,438.7075,1014.5469,428.7075,1018.5469,432.7075,1014.5469" style="stroke:#000000;stroke-width:1.0;"/><line style="stroke:#000000;stroke-width:1.0;" x1="28.9551" x2="434.7075" y1="1014.5469" y2="1014.5469"/><text fill="#000000" font-family="Verdana" font-size="13" lengthAdjust="spacing" textLength="210.082" x="35.9551" y="1009.481">Request collection archive by ID</text><polygon fill="#000000" points="704.0122,1039.6797,714.0122,1043.6797,704.0122,1047.6797,708.0122,1043.6797" style="stroke:#000000;stroke-width:1.0;"/><line style="stroke:#000000;stroke-width:1.0;" x1="440.7075" x2="710.0122" y1="1043.6797" y2="1043.6797"/><text fill="#000000" font-family="Verdana" font-size="13" lengthAdjust="spacing" textLength="158.1455" x="447.7075" y="1038.6138">Query collection archive</text><polygon fill="#000000" points="39.9551,1068.8125,29.9551,1072.8125,39.9551,1076.8125,35.9551,1072.8125" style="stroke:#000000;stroke-width:1.0;"/><line style="stroke:#000000;stroke-width:1.0;stroke-dasharray:2.0,2.0;" x1="33.9551" x2="439.7075" y1="1072.8125" y2="1072.8125"/><text fill="#000000" font-family="Verdana" font-size="13" lengthAdjust="spacing" textLength="162.5889" x="45.9551" y="1067.7466">Return collection archive</text><polygon fill="#000000" points="704.0122,1097.9453,714.0122,1101.9453,704.0122,1105.9453,708.0122,1101.9453" style="stroke:#000000;stroke-width:1.0;"/><line style="stroke:#000000;stroke-width:1.0;stroke-dasharray:2.0,2.0;" x1="28.9551" x2="710.0122" y1="1101.9453" y2="1101.9453"/><text fill="#000000" font-family="Verdana" font-size="13" lengthAdjust="spacing" textLength="296.9561" x="35.9551" y="1096.8794">Direct request collection archive (if available)</text><!--SRC=[bLJRRjim37tNLt0UC3H0jtRBMu0CMDBTi09BStdB2sqpYMP5SYGvRVRrewznhiNo4CZM8G_F8UatVaLhWbIXrC8bKgTeSGqXHidIcap7GwECXUULzDIw7w7rCf8fQZ_2E9Pw2P_kM_S3yrA__tWl14QUamGpHpO0T93nGQJx711Co6vbH7FzBFqASBqsaPAaVG4lZsAJKKOG_C95WiNx93-9qBn0y8KZW6jLb5C5yFPHBbT-e3Y0VoB_E-1heD0mtuo_JgPto_5es2bPQuWW7GEpY1WzXkYuXf5nVcbfylHOGDFoqRKGasvnuxf2zFjCuhEqhayQ3LDq2VJx8dS2td_Ua_LWQ0azWSyHXHlHFYoot0ShKJJuFBYcRsBt4MqW8tEw7eov6glRUNy-56MEYJrslbqerrZQdnCLXlVWEtjqzsCw7O4j0-RwZsDiQEBTOMLLmD1eb_6OLN1t26fhNr6Kr3309Kzbdlq_79ZWbc2DFbhbmrSJphMIEg4Ol6cRKuZUYtLyNgUA6k7dARuHPmUUQRbjM_sQgXQIppKFYtj5qTJkc6oJIKiGI-Uj33DFCGziZTaem7WhdR6x3YWJ9NDjZjjxLKjroVwSxv3hLiRoHF-LAQ1bUxTqAUaiZG-d49n7dxd2xa7pQO7VALai3RdizWNvBPsAK4EMNjo9_9wtpop0g6iAZu2LI7Sq930fjC0xtXQNAUykhV5HqoiFRW_cGB6WM-0UVBXK_LD6RC2fbLVskaG0iiEk2xFnepXNNxthhTILOWXt9nEJ-tDIofankFADgT5bBLNE1svhv9kDFrFCZLm0Rb4g31Lr_W40]--></g></svg>