<svg xmlns="http://www.w3.org/2000/svg" xmlns:xlink="http://www.w3.org/1999/xlink" contentStyleType="text/css" height="1206px" preserveAspectRatio="none" style="width:744px;height:1206px;background:#FFFFFF;" version="1.1" viewBox="0 0 744 1206" width="744px" zoomAndPan="magnify"><defs/><g><rect fill="#ADD8E6" height="1194.2422" style="stroke:#000000;stroke-width:1.0;" width="179.0244" x="63.9102" y="6"/><text fill="#000000" font-family="Verdana" font-size="13" font-weight="bold" lengthAdjust="spacing" textLength="86.9883" x="109.9282" y="18.0669">Ammoclient</text><rect fill="#90EE90" height="1194.2422" style="stroke:#000000;stroke-width:1.0;" width="180.4326" x="343.957" y="6"/><text fill="#000000" font-family="Verdana" font-size="13" font-weight="bold" lengthAdjust="spacing" textLength="116.0732" x="376.1367" y="18.0669">Ammo Collector</text><line style="stroke:#000000;stroke-width:1.0;" x1="28" x2="28" y1="82.2969" y2="1119.9453"/><line style="stroke:#000000;stroke-width:1.0;" x1="152.9102" x2="152.9102" y1="82.2969" y2="1119.9453"/><line style="stroke:#000000;stroke-width:1.0;" x1="287.9346" x2="287.9346" y1="82.2969" y2="1119.9453"/><line style="stroke:#000000;stroke-width:1.0;" x1="433.957" x2="433.957" y1="82.2969" y2="1119.9453"/><line style="stroke:#000000;stroke-width:1.0;" x1="637.7251" x2="637.7251" y1="82.2969" y2="1119.9453"/><line style="stroke:#000000;stroke-width:1.0;" x1="709.478" x2="709.478" y1="82.2969" y2="1119.9453"/><text fill="#000000" font-family="Verdana" font-size="14" lengthAdjust="spacing" textLength="31.9102" x="10" y="78.9951">User</text><ellipse cx="28.9551" cy="14" fill="#FFFFFF" rx="8" ry="8" style="stroke:#000000;stroke-width:1.0;"/><path d="M28.9551,22 L28.9551,49 M15.9551,30 L41.9551,30 M28.9551,49 L15.9551,64 M28.9551,49 L41.9551,64 " fill="none" style="stroke:#000000;stroke-width:1.0;"/><text fill="#000000" font-family="Verdana" font-size="14" lengthAdjust="spacing" textLength="31.9102" x="10" y="1131.9404">User</text><ellipse cx="28.9551" cy="1144.2422" fill="#FFFFFF" rx="8" ry="8" style="stroke:#000000;stroke-width:1.0;"/><path d="M28.9551,1152.2422 L28.9551,1179.2422 M15.9551,1160.2422 L41.9551,1160.2422 M28.9551,1179.2422 L15.9551,1194.2422 M28.9551,1179.2422 L41.9551,1194.2422 " fill="none" style="stroke:#000000;stroke-width:1.0;"/><rect fill="#FFFFFF" height="46.5938" rx="2.5" ry="2.5" style="stroke:#000000;stroke-width:1.0;" width="131.0244" x="87.9102" y="34.7031"/><text fill="#000000" font-family="Verdana" font-size="14" lengthAdjust="spacing" textLength="51.7412" x="127.5518" y="54.6982">Service</text><text fill="#000000" font-family="Verdana" font-size="14" lengthAdjust="spacing" textLength="117.0244" x="94.9102" y="70.9951">with ammoclient</text><rect fill="#FFFFFF" height="46.5938" rx="2.5" ry="2.5" style="stroke:#000000;stroke-width:1.0;" width="131.0244" x="87.9102" y="1118.9453"/><text fill="#000000" font-family="Verdana" font-size="14" lengthAdjust="spacing" textLength="51.7412" x="127.5518" y="1138.9404">Service</text><text fill="#000000" font-family="Verdana" font-size="14" lengthAdjust="spacing" textLength="117.0244" x="94.9102" y="1155.2373">with ammoclient</text><path d="M263.9346,56 L313.3096,56 C318.3096,56 318.3096,69.1484 318.3096,69.1484 C318.3096,69.1484 318.3096,82.2969 313.3096,82.2969 L263.9346,82.2969 C258.9346,82.2969 258.9346,69.1484 258.9346,69.1484 C258.9346,69.1484 258.9346,56 263.9346,56 " fill="#FFFFFF" style="stroke:#000000;stroke-width:1.0;"/><path d="M313.3096,56 C308.3096,56 308.3096,69.1484 308.3096,69.1484 C308.3096,82.2969 313.3096,82.2969 313.3096,82.2969 " fill="none" style="stroke:#000000;stroke-width:1.0;"/><text fill="#000000" font-family="Verdana" font-size="14" lengthAdjust="spacing" textLength="39.375" x="263.9346" y="73.9951">Kafka</text><path d="M263.9346,1118.9453 L313.3096,1118.9453 C318.3096,1118.9453 318.3096,1132.0938 318.3096,1132.0938 C318.3096,1132.0938 318.3096,1145.2422 313.3096,1145.2422 L263.9346,1145.2422 C258.9346,1145.2422 258.9346,1132.0938 258.9346,1132.0938 C258.9346,1132.0938 258.9346,1118.9453 263.9346,1118.9453 " fill="#FFFFFF" style="stroke:#000000;stroke-width:1.0;"/><path d="M313.3096,1118.9453 C308.3096,1118.9453 308.3096,1132.0938 308.3096,1132.0938 C308.3096,1145.2422 313.3096,1145.2422 313.3096,1145.2422 " fill="none" style="stroke:#000000;stroke-width:1.0;"/><text fill="#000000" font-family="Verdana" font-size="14" lengthAdjust="spacing" textLength="39.375" x="263.9346" y="1136.9404">Kafka</text><rect fill="#FFFFFF" height="46.5938" rx="2.5" ry="2.5" style="stroke:#000000;stroke-width:1.0;" width="132.4326" x="367.957" y="34.7031"/><text fill="#000000" font-family="Verdana" font-size="14" lengthAdjust="spacing" textLength="118.4326" x="374.957" y="54.6982">Collector Service</text><text fill="#000000" font-family="Verdana" font-size="14" lengthAdjust="spacing" textLength="88.4844" x="389.9312" y="70.9951">(REST/gRPC)</text><rect fill="#FFFFFF" height="46.5938" rx="2.5" ry="2.5" style="stroke:#000000;stroke-width:1.0;" width="132.4326" x="367.957" y="1118.9453"/><text fill="#000000" font-family="Verdana" font-size="14" lengthAdjust="spacing" textLength="118.4326" x="374.957" y="1138.9404">Collector Service</text><text fill="#000000" font-family="Verdana" font-size="14" lengthAdjust="spacing" textLength="88.4844" x="389.9312" y="1155.2373">(REST/gRPC)</text><text fill="#000000" font-family="Verdana" font-size="14" lengthAdjust="spacing" textLength="80.7529" x="594.7251" y="78.9951">PostgreSQL</text><path d="M620.1016,30 C620.1016,20 638.1016,20 638.1016,20 C638.1016,20 656.1016,20 656.1016,30 L656.1016,56 C656.1016,66 638.1016,66 638.1016,66 C638.1016,66 620.1016,66 620.1016,56 L620.1016,30 " fill="#FFFFFF" style="stroke:#000000;stroke-width:1.5;"/><path d="M620.1016,30 C620.1016,40 638.1016,40 638.1016,40 C638.1016,40 656.1016,40 656.1016,30 " fill="none" style="stroke:#000000;stroke-width:1.5;"/><text fill="#000000" font-family="Verdana" font-size="14" lengthAdjust="spacing" textLength="80.7529" x="594.7251" y="1131.9404">PostgreSQL</text><path d="M620.1016,1145.2422 C620.1016,1135.2422 638.1016,1135.2422 638.1016,1135.2422 C638.1016,1135.2422 656.1016,1135.2422 656.1016,1145.2422 L656.1016,1171.2422 C656.1016,1181.2422 638.1016,1181.2422 638.1016,1181.2422 C638.1016,1181.2422 620.1016,1181.2422 620.1016,1171.2422 L620.1016,1145.2422 " fill="#FFFFFF" style="stroke:#000000;stroke-width:1.5;"/><path d="M620.1016,1145.2422 C620.1016,1155.2422 638.1016,1155.2422 638.1016,1155.2422 C638.1016,1155.2422 656.1016,1155.2422 656.1016,1145.2422 " fill="none" style="stroke:#000000;stroke-width:1.5;"/><text fill="#000000" font-family="Verdana" font-size="14" lengthAdjust="spacing" textLength="17.7939" x="697.5811" y="78.9951">S3</text><path d="M691.478,30 C691.478,20 709.478,20 709.478,20 C709.478,20 727.478,20 727.478,30 L727.478,56 C727.478,66 709.478,66 709.478,66 C709.478,66 691.478,66 691.478,56 L691.478,30 " fill="#FFFFFF" style="stroke:#000000;stroke-width:1.5;"/><path d="M691.478,30 C691.478,40 709.478,40 709.478,40 C709.478,40 727.478,40 727.478,30 " fill="none" style="stroke:#000000;stroke-width:1.5;"/><text fill="#000000" font-family="Verdana" font-size="14" lengthAdjust="spacing" textLength="17.7939" x="697.5811" y="1131.9404">S3</text><path d="M691.478,1145.2422 C691.478,1135.2422 709.478,1135.2422 709.478,1135.2422 C709.478,1135.2422 727.478,1135.2422 727.478,1145.2422 L727.478,1171.2422 C727.478,1181.2422 709.478,1181.2422 709.478,1181.2422 C709.478,1181.2422 691.478,1181.2422 691.478,1171.2422 L691.478,1145.2422 " fill="#FFFFFF" style="stroke:#000000;stroke-width:1.5;"/><path d="M691.478,1145.2422 C691.478,1155.2422 709.478,1155.2422 709.478,1155.2422 C709.478,1155.2422 727.478,1155.2422 727.478,1145.2422 " fill="none" style="stroke:#000000;stroke-width:1.5;"/><rect fill="#FFFFFF" height="3" style="stroke:#FFFFFF;stroke-width:1.0;" width="727.478" x="5" y="112.8633"/><line style="stroke:#000000;stroke-width:0.5;" x1="5" x2="732.478" y1="112.8633" y2="112.8633"/><line style="stroke:#000000;stroke-width:0.5;" x1="5" x2="732.478" y1="115.8633" y2="115.8633"/><rect fill="#FFFFFF" height="23.1328" style="stroke:#000000;stroke-width:1.0;" width="177.3188" x="280.0796" y="102.2969"/><text fill="#000000" font-family="Verdana" font-size="13" font-weight="bold" lengthAdjust="spacing" textLength="158.793" x="286.0796" y="118.3638">Setup Collection Task</text><polygon fill="#000000" points="422.1733,152.5625,432.1733,156.5625,422.1733,160.5625,426.1733,156.5625" style="stroke:#000000;stroke-width:1.0;"/><line style="stroke:#000000;stroke-width:1.0;" x1="28.9551" x2="428.1733" y1="156.5625" y2="156.5625"/><text fill="#000000" font-family="Verdana" font-size="13" lengthAdjust="spacing" textLength="223.4502" x="35.9551" y="151.4966">Create task with collection criteria</text><polygon fill="#000000" points="626.1016,181.6953,636.1016,185.6953,626.1016,189.6953,630.1016,185.6953" style="stroke:#000000;stroke-width:1.0;"/><line style="stroke:#000000;stroke-width:1.0;" x1="434.1733" x2="632.1016" y1="185.6953" y2="185.6953"/><text fill="#000000" font-family="Verdana" font-size="13" lengthAdjust="spacing" textLength="109.9858" x="441.1733" y="180.6294">Create collection</text><polygon fill="#000000" points="39.9551,210.8281,29.9551,214.8281,39.9551,218.8281,35.9551,214.8281" style="stroke:#000000;stroke-width:1.0;"/><line style="stroke:#000000;stroke-width:1.0;stroke-dasharray:2.0,2.0;" x1="33.9551" x2="433.1733" y1="214.8281" y2="214.8281"/><text fill="#000000" font-family="Verdana" font-size="13" lengthAdjust="spacing" textLength="128.4321" x="45.9551" y="209.7622">Return collection ID</text><rect fill="#FFFFFF" height="3" style="stroke:#FFFFFF;stroke-width:1.0;" width="727.478" x="5" y="243.3945"/><line style="stroke:#000000;stroke-width:0.5;" x1="5" x2="732.478" y1="243.3945" y2="243.3945"/><line style="stroke:#000000;stroke-width:0.5;" x1="5" x2="732.478" y1="246.3945" y2="246.3945"/><rect fill="#FFFFFF" height="23.1328" style="stroke:#000000;stroke-width:1.0;" width="175.7954" x="280.8413" y="232.8281"/><text fill="#000000" font-family="Verdana" font-size="13" font-weight="bold" lengthAdjust="spacing" textLength="157.2695" x="286.8413" y="248.895">Filling the collections</text><polygon fill="#000000" points="276.6221,298.2266,286.6221,302.2266,276.6221,306.2266,280.6221,302.2266" style="stroke:#000000;stroke-width:1.0;"/><line style="stroke:#000000;stroke-width:1.0;" x1="153.4224" x2="282.6221" y1="302.2266" y2="302.2266"/><text fill="#000000" font-family="Verdana" font-size="13" lengthAdjust="spacing" textLength="110.7729" x="160.4224" y="282.0278">Send GRPC/HTTP</text><text fill="#000000" font-family="Verdana" font-size="13" lengthAdjust="spacing" textLength="90.5557" x="160.4224" y="297.1606">request (json)</text><polygon fill="#000000" points="299.6221,327.3594,289.6221,331.3594,299.6221,335.3594,295.6221,331.3594" style="stroke:#000000;stroke-width:1.0;"/><line style="stroke:#000000;stroke-width:1.0;" x1="293.6221" x2="433.1733" y1="331.3594" y2="331.3594"/><text fill="#000000" font-family="Verdana" font-size="13" lengthAdjust="spacing" textLength="121.5513" x="305.6221" y="326.2935">Consume requests</text><line style="stroke:#000000;stroke-width:1.0;" x1="434.1733" x2="476.1733" y1="375.625" y2="375.625"/><line style="stroke:#000000;stroke-width:1.0;" x1="476.1733" x2="476.1733" y1="375.625" y2="388.625"/><line style="stroke:#000000;stroke-width:1.0;" x1="435.1733" x2="476.1733" y1="388.625" y2="388.625"/><polygon fill="#000000" points="445.1733,384.625,435.1733,388.625,445.1733,392.625,441.1733,388.625" style="stroke:#000000;stroke-width:1.0;"/><text fill="#000000" font-family="Verdana" font-size="13" lengthAdjust="spacing" textLength="145.8628" x="441.1733" y="355.4263">Check request against</text><text fill="#000000" font-family="Verdana" font-size="13" lengthAdjust="spacing" textLength="112.6265" x="441.1733" y="370.5591">collection criteria</text><polygon fill="#000000" points="626.1016,428.8906,636.1016,432.8906,626.1016,436.8906,630.1016,432.8906" style="stroke:#000000;stroke-width:1.0;"/><line style="stroke:#000000;stroke-width:1.0;" x1="434.1733" x2="632.1016" y1="432.8906" y2="432.8906"/><text fill="#000000" font-family="Verdana" font-size="13" lengthAdjust="spacing" textLength="157.8662" x="441.1733" y="412.6919">Save matching requests</text><text fill="#000000" font-family="Verdana" font-size="13" lengthAdjust="spacing" textLength="122.9287" x="441.1733" y="427.8247">linked to collection</text><rect fill="#FFFFFF" height="3" style="stroke:#FFFFFF;stroke-width:1.0;" width="727.478" x="5" y="461.457"/><line style="stroke:#000000;stroke-width:0.5;" x1="5" x2="732.478" y1="461.457" y2="461.457"/><line style="stroke:#000000;stroke-width:0.5;" x1="5" x2="732.478" y1="464.457" y2="464.457"/><rect fill="#FFFFFF" height="23.1328" style="stroke:#000000;stroke-width:1.0;" width="187.0054" x="275.2363" y="450.8906"/><text fill="#000000" font-family="Verdana" font-size="13" font-weight="bold" lengthAdjust="spacing" textLength="168.4795" x="281.2363" y="466.9575">Collections Completion</text><polygon fill="#000000" points="626.1016,501.1563,636.1016,505.1563,626.1016,509.1563,630.1016,505.1563" style="stroke:#000000;stroke-width:1.0;"/><line style="stroke:#000000;stroke-width:1.0;" x1="434.1733" x2="632.1016" y1="505.1563" y2="505.1563"/><text fill="#000000" font-family="Verdana" font-size="13" lengthAdjust="spacing" textLength="152.8833" x="441.1733" y="500.0903">Fetch active collections</text><line style="stroke:#000000;stroke-width:1.0;" x1="434.1733" x2="476.1733" y1="549.4219" y2="549.4219"/><line style="stroke:#000000;stroke-width:1.0;" x1="476.1733" x2="476.1733" y1="549.4219" y2="562.4219"/><line style="stroke:#000000;stroke-width:1.0;" x1="435.1733" x2="476.1733" y1="562.4219" y2="562.4219"/><polygon fill="#000000" points="445.1733,558.4219,435.1733,562.4219,445.1733,566.4219,441.1733,562.4219" style="stroke:#000000;stroke-width:1.0;"/><text fill="#000000" font-family="Verdana" font-size="13" lengthAdjust="spacing" textLength="189.9282" x="441.1733" y="529.2231">Check collections completion</text><text fill="#000000" font-family="Verdana" font-size="13" lengthAdjust="spacing" textLength="46.1221" x="441.1733" y="544.356">criteria</text><polygon fill="#000000" points="626.1016,617.8203,636.1016,621.8203,626.1016,625.8203,630.1016,621.8203" style="stroke:#000000;stroke-width:1.0;"/><line style="stroke:#000000;stroke-width:1.0;" x1="434.1733" x2="632.1016" y1="621.8203" y2="621.8203"/><text fill="#000000" font-family="Verdana" font-size="13" lengthAdjust="spacing" textLength="148.332" x="441.1733" y="586.4888">Try acquire distributed</text><text fill="#000000" font-family="Verdana" font-size="13" lengthAdjust="spacing" textLength="168.2446" x="441.1733" y="601.6216">(postgresql advisory) lock</text><text fill="#000000" font-family="Verdana" font-size="13" lengthAdjust="spacing" textLength="100.6738" x="441.1733" y="616.7544">on collection ID</text><polygon fill="#000000" points="626.1016,646.9531,636.1016,650.9531,626.1016,654.9531,630.1016,650.9531" style="stroke:#000000;stroke-width:1.0;"/><line style="stroke:#000000;stroke-width:1.0;" x1="434.1733" x2="632.1016" y1="650.9531" y2="650.9531"/><text fill="#000000" font-family="Verdana" font-size="13" lengthAdjust="spacing" textLength="159.5166" x="441.1733" y="645.8872">Fetch collected requests</text><polygon fill="#000000" points="697.478,676.0859,707.478,680.0859,697.478,684.0859,701.478,680.0859" style="stroke:#000000;stroke-width:1.0;"/><line style="stroke:#000000;stroke-width:1.0;" x1="434.1733" x2="703.478" y1="680.0859" y2="680.0859"/><text fill="#000000" font-family="Verdana" font-size="13" lengthAdjust="spacing" textLength="125.7344" x="441.1733" y="675.02">Save as zip archive</text><polygon fill="#000000" points="626.1016,705.2188,636.1016,709.2188,626.1016,713.2188,630.1016,709.2188" style="stroke:#000000;stroke-width:1.0;"/><line style="stroke:#000000;stroke-width:1.0;" x1="434.1733" x2="632.1016" y1="709.2188" y2="709.2188"/><text fill="#000000" font-family="Verdana" font-size="13" lengthAdjust="spacing" textLength="157.6631" x="441.1733" y="704.1528">Update collection status</text><rect fill="#FFFFFF" height="3" style="stroke:#FFFFFF;stroke-width:1.0;" width="727.478" x="5" y="737.7852"/><line style="stroke:#000000;stroke-width:0.5;" x1="5" x2="732.478" y1="737.7852" y2="737.7852"/><line style="stroke:#000000;stroke-width:0.5;" x1="5" x2="732.478" y1="740.7852" y2="740.7852"/><rect fill="#FFFFFF" height="23.1328" style="stroke:#000000;stroke-width:1.0;" width="191.4995" x="272.9893" y="727.2188"/><text fill="#000000" font-family="Verdana" font-size="13" font-weight="bold" lengthAdjust="spacing" textLength="172.9736" x="278.9893" y="743.2856">Background Operations</text><polygon fill="#000000" points="626.1016,792.6172,636.1016,796.6172,626.1016,800.6172,630.1016,796.6172" style="stroke:#000000;stroke-width:1.0;"/><line style="stroke:#000000;stroke-width:1.0;" x1="434.1733" x2="632.1016" y1="796.6172" y2="796.6172"/><text fill="#000000" font-family="Verdana" font-size="13" lengthAdjust="spacing" textLength="178.7056" x="441.1733" y="776.4185">Try acquire distributed lock</text><text fill="#000000" font-family="Verdana" font-size="13" lengthAdjust="spacing" textLength="75.9116" x="441.1733" y="791.5513">on clean up</text><polygon fill="#000000" points="626.1016,821.75,636.1016,825.75,626.1016,829.75,630.1016,825.75" style="stroke:#000000;stroke-width:1.0;"/><line style="stroke:#000000;stroke-width:1.0;" x1="434.1733" x2="632.1016" y1="825.75" y2="825.75"/><text fill="#000000" font-family="Verdana" font-size="13" lengthAdjust="spacing" textLength="154.6035" x="441.1733" y="820.6841">Cleanup of old requests</text><polygon fill="#000000" points="697.478,850.8828,707.478,854.8828,697.478,858.8828,701.478,854.8828" style="stroke:#000000;stroke-width:1.0;"/><line style="stroke:#000000;stroke-width:1.0;" x1="434.1733" x2="703.478" y1="854.8828" y2="854.8828"/><text fill="#000000" font-family="Verdana" font-size="13" lengthAdjust="spacing" textLength="152.9023" x="441.1733" y="849.8169">Cleanup of old archives</text><rect fill="#FFFFFF" height="3" style="stroke:#FFFFFF;stroke-width:1.0;" width="727.478" x="5" y="883.4492"/><line style="stroke:#000000;stroke-width:0.5;" x1="5" x2="732.478" y1="883.4492" y2="883.4492"/><line style="stroke:#000000;stroke-width:0.5;" x1="5" x2="732.478" y1="886.4492" y2="886.4492"/><rect fill="#FFFFFF" height="23.1328" style="stroke:#000000;stroke-width:1.0;" width="217.9883" x="259.7449" y="872.8828"/><text fill="#000000" font-family="Verdana" font-size="13" font-weight="bold" lengthAdjust="spacing" textLength="199.4624" x="265.7449" y="888.9497">Collection Status &amp; Results</text><polygon fill="#000000" points="422.1733,923.1484,432.1733,927.1484,422.1733,931.1484,426.1733,927.1484" style="stroke:#000000;stroke-width:1.0;"/><line style="stroke:#000000;stroke-width:1.0;" x1="28.9551" x2="428.1733" y1="927.1484" y2="927.1484"/><text fill="#000000" font-family="Verdana" font-size="13" lengthAdjust="spacing" textLength="283.8481" x="35.9551" y="922.0825">Check collection status, collections list, etc.</text><polygon fill="#000000" points="626.1016,952.2813,636.1016,956.2813,626.1016,960.2813,630.1016,956.2813" style="stroke:#000000;stroke-width:1.0;"/><line style="stroke:#000000;stroke-width:1.0;" x1="434.1733" x2="632.1016" y1="956.2813" y2="956.2813"/><text fill="#000000" font-family="Verdana" font-size="13" lengthAdjust="spacing" textLength="150.0903" x="441.1733" y="951.2153">Query collection status</text><polygon fill="#000000" points="39.9551,981.4141,29.9551,985.4141,39.9551,989.4141,35.9551,985.4141" style="stroke:#000000;stroke-width:1.0;"/><line style="stroke:#000000;stroke-width:1.0;stroke-dasharray:2.0,2.0;" x1="33.9551" x2="433.1733" y1="985.4141" y2="985.4141"/><text fill="#000000" font-family="Verdana" font-size="13" lengthAdjust="spacing" textLength="165.7183" x="45.9551" y="980.3481">Return status and s3 URL</text><polygon fill="#000000" points="422.1733,1010.5469,432.1733,1014.5469,422.1733,1018.5469,426.1733,1014.5469" style="stroke:#000000;stroke-width:1.0;"/><line style="stroke:#000000;stroke-width:1.0;" x1="28.9551" x2="428.1733" y1="1014.5469" y2="1014.5469"/><text fill="#000000" font-family="Verdana" font-size="13" lengthAdjust="spacing" textLength="210.082" x="35.9551" y="1009.481">Request collection archive by ID</text><polygon fill="#000000" points="697.478,1039.6797,707.478,1043.6797,697.478,1047.6797,701.478,1043.6797" style="stroke:#000000;stroke-width:1.0;"/><line style="stroke:#000000;stroke-width:1.0;" x1="434.1733" x2="703.478" y1="1043.6797" y2="1043.6797"/><text fill="#000000" font-family="Verdana" font-size="13" lengthAdjust="spacing" textLength="158.1455" x="441.1733" y="1038.6138">Query collection archive</text><polygon fill="#000000" points="39.9551,1068.8125,29.9551,1072.8125,39.9551,1076.8125,35.9551,1072.8125" style="stroke:#000000;stroke-width:1.0;"/><line style="stroke:#000000;stroke-width:1.0;stroke-dasharray:2.0,2.0;" x1="33.9551" x2="433.1733" y1="1072.8125" y2="1072.8125"/><text fill="#000000" font-family="Verdana" font-size="13" lengthAdjust="spacing" textLength="162.5889" x="45.9551" y="1067.7466">Return collection archive</text><polygon fill="#000000" points="697.478,1097.9453,707.478,1101.9453,697.478,1105.9453,701.478,1101.9453" style="stroke:#000000;stroke-width:1.0;"/><line style="stroke:#000000;stroke-width:1.0;stroke-dasharray:2.0,2.0;" x1="28.9551" x2="703.478" y1="1101.9453" y2="1101.9453"/><text fill="#000000" font-family="Verdana" font-size="13" lengthAdjust="spacing" textLength="296.9561" x="35.9551" y="1096.8794">Direct request collection archive (if available)</text><!--SRC=[bLHBRzf04BxlhvXIgGfIsgJbXaIbGfgqQgGI83SkWpt0rikkim_o-FKT6zii18Z2oNY_dUynC_xWbxGYo1LABLmcTOuMLp3395jO4tGwCCfOU5nAJz7v4AsNYSnH-o6cgTGB-7OPdVVDK_t-wwKGc7WkqhftP5k03W8_234pJz3wiLgPH4dIlWKVR-LYwVigaCYt1D0QartBXARwKVebO7I3QsqU1UaKkA0G3u42GUiFpZCi0Ldn5B41Mr9KAAePRooH5i2_7Te61us0iz7FyUHYCHeEsXlo6hBbJz7Z31rB61hd5vR6TxSbDj_yTH5Yt2bFN4U8NezPVCXhTT9ecA3BeDSJHLpm-VkMhGi3I-W9V84eKqcsrnBBpR8IHOClBjVqpTtjZHZ8o8Ak2oDMOtLSz_TLAVDQAbKqbYSdEdKi5CIc6GLTcNgNFN4kDvpNnQ_9P3ZLbhW_piFPFsTqUrTXTMN0nGBFP0Lrkw0uWoKbMGq3NF08Ep_LxqXYZ6k25VfaMHYg2QUQ_MMKWZTnI8NtGUHtO5QvefA7UtI4uPguEF3yo_LEMc-OYdDD6XxszeQXYNrcieSWBK4gdRTo5ZobFBWrva41fclfZ7rkWp99DjLclyidlLI77C_X1hbEbIiFzelC0IsdkwPZHU_pT7SOmNdqmPLnzvlF4FpDoM8zQE-q7_bKX1f2VdGrYdDUGZC7equvt0DM9jtUaC2uz0AVU9jSKDuTs-QzfbSPdE_CWM93vy0z-79C_LqW3k1rb2VMUuC0v8HT1-v7j-AGlb6rOr7foZ7CdbzDJ97FAoa7nk34fwP6RxHKDQ-uhObl5lw0c3Cv1roZL3XJrFuF]--></g></svg>