<svg xmlns="http://www.w3.org/2000/svg" xmlns:xlink="http://www.w3.org/1999/xlink" contentStyleType="text/css" height="871px" preserveAspectRatio="none" style="width:923px;height:871px;background:#FFFFFF;" version="1.1" viewBox="0 0 923 871" width="923px" zoomAndPan="magnify"><defs/><g><text fill="#000000" font-family="Verdana" font-size="22" font-weight="bold" lengthAdjust="spacing" textLength="321.5029" x="304.4065" y="35.4209">Ammo Collector Workflow</text><rect fill="#FFFFFF" height="177.7969" style="stroke:#000000;stroke-width:1.0;" width="485.4023" x="394.9136" y="262.4375"/><rect fill="#FFFFFF" height="75.3984" style="stroke:#000000;stroke-width:1.0;" width="348.2842" x="522.0317" y="357.8359"/><rect fill="#FFFFFF" height="75.3984" style="stroke:#000000;stroke-width:1.0;" width="394.2842" x="522.0317" y="496.3672"/><rect fill="#FFFFFF" height="75.3984" style="stroke:#000000;stroke-width:1.0;" width="394.2842" x="522.0317" y="610.7656"/><line style="stroke:#000000;stroke-width:1.0;" x1="33" x2="33" y1="128.9063" y2="790.5625"/><line style="stroke:#000000;stroke-width:1.0;" x1="302.9912" x2="302.9912" y1="128.9063" y2="790.5625"/><line style="stroke:#000000;stroke-width:1.0;" x1="433.9136" x2="433.9136" y1="128.9063" y2="790.5625"/><line style="stroke:#000000;stroke-width:1.0;" x1="580.0317" x2="580.0317" y1="128.9063" y2="790.5625"/><line style="stroke:#000000;stroke-width:1.0;" x1="802.563" x2="802.563" y1="128.9063" y2="790.5625"/><line style="stroke:#000000;stroke-width:1.0;" x1="888.3159" x2="888.3159" y1="128.9063" y2="790.5625"/><text fill="#000000" font-family="Verdana" font-size="14" lengthAdjust="spacing" textLength="40.5303" x="10" y="125.6045">Client</text><ellipse cx="33.2651" cy="60.6094" fill="#FFFFFF" rx="8" ry="8" style="stroke:#000000;stroke-width:1.0;"/><path d="M33.2651,68.6094 L33.2651,95.6094 M20.2651,76.6094 L46.2651,76.6094 M33.2651,95.6094 L20.2651,110.6094 M33.2651,95.6094 L46.2651,110.6094 " fill="none" style="stroke:#000000;stroke-width:1.0;"/><text fill="#000000" font-family="Verdana" font-size="14" lengthAdjust="spacing" textLength="40.5303" x="10" y="802.5576">Client</text><ellipse cx="33.2651" cy="814.8594" fill="#FFFFFF" rx="8" ry="8" style="stroke:#000000;stroke-width:1.0;"/><path d="M33.2651,822.8594 L33.2651,849.8594 M20.2651,830.8594 L46.2651,830.8594 M33.2651,849.8594 L20.2651,864.8594 M33.2651,849.8594 L46.2651,864.8594 " fill="none" style="stroke:#000000;stroke-width:1.0;"/><rect fill="#FFFFFF" height="46.5938" rx="2.5" ry="2.5" style="stroke:#000000;stroke-width:1.0;" width="96.8721" x="254.9912" y="81.3125"/><text fill="#000000" font-family="Verdana" font-size="14" lengthAdjust="spacing" textLength="82.8721" x="261.9912" y="101.3076">ammoclient</text><text fill="#000000" font-family="Verdana" font-size="14" lengthAdjust="spacing" textLength="36.8047" x="285.0249" y="117.6045">(pkg)</text><rect fill="#FFFFFF" height="46.5938" rx="2.5" ry="2.5" style="stroke:#000000;stroke-width:1.0;" width="96.8721" x="254.9912" y="789.5625"/><text fill="#000000" font-family="Verdana" font-size="14" lengthAdjust="spacing" textLength="82.8721" x="261.9912" y="809.5576">ammoclient</text><text fill="#000000" font-family="Verdana" font-size="14" lengthAdjust="spacing" textLength="36.8047" x="285.0249" y="825.8545">(pkg)</text><path d="M409.9136,102.6094 L459.2886,102.6094 C464.2886,102.6094 464.2886,115.7578 464.2886,115.7578 C464.2886,115.7578 464.2886,128.9063 459.2886,128.9063 L409.9136,128.9063 C404.9136,128.9063 404.9136,115.7578 404.9136,115.7578 C404.9136,115.7578 404.9136,102.6094 409.9136,102.6094 " fill="#FFFFFF" style="stroke:#000000;stroke-width:1.0;"/><path d="M459.2886,102.6094 C454.2886,102.6094 454.2886,115.7578 454.2886,115.7578 C454.2886,128.9063 459.2886,128.9063 459.2886,128.9063 " fill="none" style="stroke:#000000;stroke-width:1.0;"/><text fill="#000000" font-family="Verdana" font-size="14" lengthAdjust="spacing" textLength="39.375" x="409.9136" y="120.6045">Kafka</text><path d="M409.9136,789.5625 L459.2886,789.5625 C464.2886,789.5625 464.2886,802.7109 464.2886,802.7109 C464.2886,802.7109 464.2886,815.8594 459.2886,815.8594 L409.9136,815.8594 C404.9136,815.8594 404.9136,802.7109 404.9136,802.7109 C404.9136,802.7109 404.9136,789.5625 409.9136,789.5625 " fill="#FFFFFF" style="stroke:#000000;stroke-width:1.0;"/><path d="M459.2886,789.5625 C454.2886,789.5625 454.2886,802.7109 454.2886,802.7109 C454.2886,815.8594 459.2886,815.8594 459.2886,815.8594 " fill="none" style="stroke:#000000;stroke-width:1.0;"/><text fill="#000000" font-family="Verdana" font-size="14" lengthAdjust="spacing" textLength="39.375" x="409.9136" y="807.5576">Kafka</text><rect fill="#FFFFFF" height="30.2969" rx="2.5" ry="2.5" style="stroke:#000000;stroke-width:1.0;" width="76.2412" x="542.0317" y="97.6094"/><text fill="#000000" font-family="Verdana" font-size="14" lengthAdjust="spacing" textLength="62.2412" x="549.0317" y="117.6045">Collector</text><rect fill="#FFFFFF" height="30.2969" rx="2.5" ry="2.5" style="stroke:#000000;stroke-width:1.0;" width="76.2412" x="542.0317" y="789.5625"/><text fill="#000000" font-family="Verdana" font-size="14" lengthAdjust="spacing" textLength="62.2412" x="549.0317" y="809.5576">Collector</text><rect fill="#FFFFFF" height="30.2969" rx="2.5" ry="2.5" style="stroke:#000000;stroke-width:1.0;" width="94.7529" x="755.563" y="97.6094"/><text fill="#000000" font-family="Verdana" font-size="14" lengthAdjust="spacing" textLength="80.7529" x="762.563" y="117.6045">PostgreSQL</text><rect fill="#FFFFFF" height="30.2969" rx="2.5" ry="2.5" style="stroke:#000000;stroke-width:1.0;" width="94.7529" x="755.563" y="789.5625"/><text fill="#000000" font-family="Verdana" font-size="14" lengthAdjust="spacing" textLength="80.7529" x="762.563" y="809.5576">PostgreSQL</text><text fill="#000000" font-family="Verdana" font-size="14" lengthAdjust="spacing" textLength="17.7939" x="876.4189" y="125.6045">S3</text><path d="M870.3159,76.6094 C870.3159,66.6094 888.3159,66.6094 888.3159,66.6094 C888.3159,66.6094 906.3159,66.6094 906.3159,76.6094 L906.3159,102.6094 C906.3159,112.6094 888.3159,112.6094 888.3159,112.6094 C888.3159,112.6094 870.3159,112.6094 870.3159,102.6094 L870.3159,76.6094 " fill="#FFFFFF" style="stroke:#000000;stroke-width:1.5;"/><path d="M870.3159,76.6094 C870.3159,86.6094 888.3159,86.6094 888.3159,86.6094 C888.3159,86.6094 906.3159,86.6094 906.3159,76.6094 " fill="none" style="stroke:#000000;stroke-width:1.5;"/><text fill="#000000" font-family="Verdana" font-size="14" lengthAdjust="spacing" textLength="17.7939" x="876.4189" y="802.5576">S3</text><path d="M870.3159,815.8594 C870.3159,805.8594 888.3159,805.8594 888.3159,805.8594 C888.3159,805.8594 906.3159,805.8594 906.3159,815.8594 L906.3159,841.8594 C906.3159,851.8594 888.3159,851.8594 888.3159,851.8594 C888.3159,851.8594 870.3159,851.8594 870.3159,841.8594 L870.3159,815.8594 " fill="#FFFFFF" style="stroke:#000000;stroke-width:1.5;"/><path d="M870.3159,815.8594 C870.3159,825.8594 888.3159,825.8594 888.3159,825.8594 C888.3159,825.8594 906.3159,825.8594 906.3159,815.8594 " fill="none" style="stroke:#000000;stroke-width:1.5;"/><polygon fill="#000000" points="568.1523,156.0391,578.1523,160.0391,568.1523,164.0391,572.1523,160.0391" style="stroke:#000000;stroke-width:1.0;"/><line style="stroke:#000000;stroke-width:1.0;" x1="33.2651" x2="574.1523" y1="160.0391" y2="160.0391"/><text fill="#000000" font-family="Verdana" font-size="13" lengthAdjust="spacing" textLength="64.2383" x="40.2651" y="154.9731">Send task</text><polygon fill="#000000" points="790.9395,185.1719,800.9395,189.1719,790.9395,193.1719,794.9395,189.1719" style="stroke:#000000;stroke-width:1.0;"/><line style="stroke:#000000;stroke-width:1.0;" x1="580.1523" x2="796.9395" y1="189.1719" y2="189.1719"/><text fill="#000000" font-family="Verdana" font-size="13" lengthAdjust="spacing" textLength="109.9858" x="587.1523" y="184.106">Create collection</text><polygon fill="#000000" points="291.4272,214.3047,301.4272,218.3047,291.4272,222.3047,295.4272,218.3047" style="stroke:#000000;stroke-width:1.0;"/><line style="stroke:#000000;stroke-width:1.0;" x1="33.2651" x2="297.4272" y1="218.3047" y2="218.3047"/><text fill="#000000" font-family="Verdana" font-size="13" lengthAdjust="spacing" textLength="246.1621" x="40.2651" y="213.2388">SendGRPCRequest/SendHTTPRequest</text><polygon fill="#000000" points="422.6011,243.4375,432.6011,247.4375,422.6011,251.4375,426.6011,247.4375" style="stroke:#000000;stroke-width:1.0;"/><line style="stroke:#000000;stroke-width:1.0;" x1="303.4272" x2="428.6011" y1="247.4375" y2="247.4375"/><text fill="#000000" font-family="Verdana" font-size="13" lengthAdjust="spacing" textLength="107.1738" x="310.4272" y="242.3716">Publish requests</text><path d="M394.9136,262.4375 L471.5376,262.4375 L471.5376,269.5703 L461.5376,279.5703 L394.9136,279.5703 L394.9136,262.4375 " fill="#FFFFFF" style="stroke:#000000;stroke-width:1.0;"/><rect fill="none" height="177.7969" style="stroke:#000000;stroke-width:1.0;" width="485.4023" x="394.9136" y="262.4375"/><text fill="#000000" font-family="Verdana" font-size="13" font-weight="bold" lengthAdjust="spacing" textLength="31.624" x="409.9136" y="275.5044">loop</text><text fill="#000000" font-family="Verdana" font-size="11" font-weight="bold" lengthAdjust="spacing" textLength="155.5146" x="486.5376" y="274.6479">[Background Processing]</text><polygon fill="#000000" points="445.6011,296.7031,435.6011,300.7031,445.6011,304.7031,441.6011,300.7031" style="stroke:#000000;stroke-width:1.0;"/><line style="stroke:#000000;stroke-width:1.0;" x1="439.6011" x2="579.1523" y1="300.7031" y2="300.7031"/><text fill="#000000" font-family="Verdana" font-size="13" lengthAdjust="spacing" textLength="121.5513" x="451.6011" y="295.6372">Consume requests</text><line style="stroke:#000000;stroke-width:1.0;" x1="580.1523" x2="622.1523" y1="329.8359" y2="329.8359"/><line style="stroke:#000000;stroke-width:1.0;" x1="622.1523" x2="622.1523" y1="329.8359" y2="342.8359"/><line style="stroke:#000000;stroke-width:1.0;" x1="581.1523" x2="622.1523" y1="342.8359" y2="342.8359"/><polygon fill="#000000" points="591.1523,338.8359,581.1523,342.8359,591.1523,346.8359,587.1523,342.8359" style="stroke:#000000;stroke-width:1.0;"/><text fill="#000000" font-family="Verdana" font-size="13" lengthAdjust="spacing" textLength="208.7871" x="587.1523" y="324.77">Check against collection criteria</text><path d="M522.0317,357.8359 L586.4746,357.8359 L586.4746,364.9688 L576.4746,374.9688 L522.0317,374.9688 L522.0317,357.8359 " fill="#FFFFFF" style="stroke:#000000;stroke-width:1.0;"/><rect fill="none" height="75.3984" style="stroke:#000000;stroke-width:1.0;" width="348.2842" x="522.0317" y="357.8359"/><text fill="#000000" font-family="Verdana" font-size="13" font-weight="bold" lengthAdjust="spacing" textLength="19.4429" x="537.0317" y="370.9028">alt</text><text fill="#000000" font-family="Verdana" font-size="11" font-weight="bold" lengthAdjust="spacing" textLength="110.9238" x="601.4746" y="370.0464">[Matches criteria]</text><polygon fill="#000000" points="790.9395,392.1016,800.9395,396.1016,790.9395,400.1016,794.9395,396.1016" style="stroke:#000000;stroke-width:1.0;"/><line style="stroke:#000000;stroke-width:1.0;" x1="580.1523" x2="796.9395" y1="396.1016" y2="396.1016"/><text fill="#000000" font-family="Verdana" font-size="13" lengthAdjust="spacing" textLength="88.48" x="587.1523" y="391.0356">Store request</text><polygon fill="#000000" points="790.9395,421.2344,800.9395,425.2344,790.9395,429.2344,794.9395,425.2344" style="stroke:#000000;stroke-width:1.0;"/><line style="stroke:#000000;stroke-width:1.0;" x1="580.1523" x2="796.9395" y1="425.2344" y2="425.2344"/><text fill="#000000" font-family="Verdana" font-size="13" lengthAdjust="spacing" textLength="110.3096" x="587.1523" y="420.1685">Link to collection</text><line style="stroke:#000000;stroke-width:1.0;" x1="580.1523" x2="622.1523" y1="468.3672" y2="468.3672"/><line style="stroke:#000000;stroke-width:1.0;" x1="622.1523" x2="622.1523" y1="468.3672" y2="481.3672"/><line style="stroke:#000000;stroke-width:1.0;" x1="581.1523" x2="622.1523" y1="481.3672" y2="481.3672"/><polygon fill="#000000" points="591.1523,477.3672,581.1523,481.3672,591.1523,485.3672,587.1523,481.3672" style="stroke:#000000;stroke-width:1.0;"/><text fill="#000000" font-family="Verdana" font-size="13" lengthAdjust="spacing" textLength="159.999" x="587.1523" y="463.3013">Monitor collection status</text><path d="M522.0317,496.3672 L586.4746,496.3672 L586.4746,503.5 L576.4746,513.5 L522.0317,513.5 L522.0317,496.3672 " fill="#FFFFFF" style="stroke:#000000;stroke-width:1.0;"/><rect fill="none" height="75.3984" style="stroke:#000000;stroke-width:1.0;" width="394.2842" x="522.0317" y="496.3672"/><text fill="#000000" font-family="Verdana" font-size="13" font-weight="bold" lengthAdjust="spacing" textLength="19.4429" x="537.0317" y="509.4341">alt</text><text fill="#000000" font-family="Verdana" font-size="11" font-weight="bold" lengthAdjust="spacing" textLength="111.7349" x="601.4746" y="508.5776">[Task completion]</text><polygon fill="#000000" points="790.9395,530.6328,800.9395,534.6328,790.9395,538.6328,794.9395,534.6328" style="stroke:#000000;stroke-width:1.0;"/><line style="stroke:#000000;stroke-width:1.0;" x1="580.1523" x2="796.9395" y1="534.6328" y2="534.6328"/><text fill="#000000" font-family="Verdana" font-size="13" lengthAdjust="spacing" textLength="105.3267" x="587.1523" y="529.5669">Gather requests</text><polygon fill="#000000" points="876.3159,559.7656,886.3159,563.7656,876.3159,567.7656,880.3159,563.7656" style="stroke:#000000;stroke-width:1.0;"/><line style="stroke:#000000;stroke-width:1.0;" x1="580.1523" x2="882.3159" y1="563.7656" y2="563.7656"/><text fill="#000000" font-family="Verdana" font-size="13" lengthAdjust="spacing" textLength="124.4712" x="587.1523" y="558.6997">Zip &amp; store archive</text><path d="M522.0317,610.7656 L661.2881,610.7656 L661.2881,617.8984 L651.2881,627.8984 L522.0317,627.8984 L522.0317,610.7656 " fill="#FFFFFF" style="stroke:#000000;stroke-width:1.0;"/><rect fill="none" height="75.3984" style="stroke:#000000;stroke-width:1.0;" width="394.2842" x="522.0317" y="610.7656"/><text fill="#000000" font-family="Verdana" font-size="13" font-weight="bold" lengthAdjust="spacing" textLength="94.2563" x="537.0317" y="623.8325">Maintenance</text><polygon fill="#000000" points="790.9395,645.0313,800.9395,649.0313,790.9395,653.0313,794.9395,649.0313" style="stroke:#000000;stroke-width:1.0;"/><line style="stroke:#000000;stroke-width:1.0;" x1="580.1523" x2="796.9395" y1="649.0313" y2="649.0313"/><text fill="#000000" font-family="Verdana" font-size="13" lengthAdjust="spacing" textLength="121.4497" x="587.1523" y="643.9653">Clean old requests</text><polygon fill="#000000" points="876.3159,674.1641,886.3159,678.1641,876.3159,682.1641,880.3159,678.1641" style="stroke:#000000;stroke-width:1.0;"/><line style="stroke:#000000;stroke-width:1.0;" x1="580.1523" x2="882.3159" y1="678.1641" y2="678.1641"/><text fill="#000000" font-family="Verdana" font-size="13" lengthAdjust="spacing" textLength="119.7485" x="587.1523" y="673.0981">Clean old archives</text><polygon fill="#000000" points="568.1523,710.2969,578.1523,714.2969,568.1523,718.2969,572.1523,714.2969" style="stroke:#000000;stroke-width:1.0;"/><line style="stroke:#000000;stroke-width:1.0;" x1="33.2651" x2="574.1523" y1="714.2969" y2="714.2969"/><text fill="#000000" font-family="Verdana" font-size="13" lengthAdjust="spacing" textLength="143.5586" x="40.2651" y="709.231">Check collection state</text><polygon fill="#000000" points="568.1523,739.4297,578.1523,743.4297,568.1523,747.4297,572.1523,743.4297" style="stroke:#000000;stroke-width:1.0;"/><line style="stroke:#000000;stroke-width:1.0;" x1="33.2651" x2="574.1523" y1="743.4297" y2="743.4297"/><text fill="#000000" font-family="Verdana" font-size="13" lengthAdjust="spacing" textLength="129.7271" x="40.2651" y="738.3638">Retrieve zip archive</text><polygon fill="#000000" points="876.3159,768.5625,886.3159,772.5625,876.3159,776.5625,880.3159,772.5625" style="stroke:#000000;stroke-width:1.0;"/><line style="stroke:#000000;stroke-width:1.0;stroke-dasharray:2.0,2.0;" x1="33.2651" x2="882.3159" y1="772.5625" y2="772.5625"/><text fill="#000000" font-family="Verdana" font-size="13" lengthAdjust="spacing" textLength="196.6885" x="40.2651" y="767.4966">Retrieve zip archive (optional)</text><!--SRC=[VLF1QkCm4BthAsPpMDh3ieVUSYZi-j25RS6D0uMobwaojOKLIPN6kx3aupkAJQo4961ZHdfwxyqR-Gjtj2K85erJYWrRWX_RhOVAMqkQVOGN7_jtw_yfXVkwieOSg_43t-vdw18QSXjWJ3s0KZE5W6gVk8tKF3ykeOg4JA37VUD5EM1aeqr0eSpw4picMA2KUb_-SJUXRsyNwcEWWU0tllTuT79nR7sHpnygjK76DqnKU9dNcZjLj3HR67jwMDNLYaGsyVTS_rglwwbMXLqvkJUrX7fuioPr44TGKifw7-0dwhwDVf2KwkWrfMHSgm2EefeeAk_I8BCvK9p0YjYhZdGFsCeG4nUvWew6AHgKi_AWPNX2rXsbSkU4jvnK8si71zUXZyRrmBwSAe14fVAhBZb_yixarS9pOkH10ijkr_agQRyDbYR6Y_eFA5SvNaohkLl2gmdmLVXpJnXrP_wIvBBtjzljbCgJ2PAGSKmEdQPhUfKbTE3jvghaZ9e4qvJ7kRzd7ED957GUkoAEXgI1_zBKn7r0JkBdC73ZG-P6U_i9]--></g></svg>